<svg width="25" height="25" viewBox="0 0 25 25" fill="none" xmlns="http://www.w3.org/2000/svg">
<path d="M8.5 11.5C8.5 11.2348 8.60536 10.9805 8.79289 10.7929C8.98043 10.6054 9.23478 10.5 9.5 10.5H15.5C15.7652 10.5 16.0196 10.6054 16.2071 10.7929C16.3946 10.9805 16.5 11.2348 16.5 11.5C16.5 11.7653 16.3946 12.0196 16.2071 12.2071C16.0196 12.3947 15.7652 12.5 15.5 12.5H9.5C9.23478 12.5 8.98043 12.3947 8.79289 12.2071C8.60536 12.0196 8.5 11.7653 8.5 11.5ZM9.5 14.5C9.23478 14.5 8.98043 14.6054 8.79289 14.7929C8.60536 14.9805 8.5 15.2348 8.5 15.5C8.5 15.7653 8.60536 16.0196 8.79289 16.2071C8.98043 16.3947 9.23478 16.5 9.5 16.5H13.5C13.7652 16.5 14.0196 16.3947 14.2071 16.2071C14.3946 16.0196 14.5 15.7653 14.5 15.5C14.5 15.2348 14.3946 14.9805 14.2071 14.7929C14.0196 14.6054 13.7652 14.5 13.5 14.5H9.5ZM2.5 12.5C2.5005 10.3076 3.22148 8.17615 4.55199 6.43363C5.88249 4.6911 7.74877 3.43411 9.8636 2.85611C11.9784 2.27811 14.2246 2.41112 16.2565 3.23469C18.2883 4.05826 19.9932 5.52673 21.1087 7.4141C22.2243 9.30148 22.6886 11.5032 22.4304 13.6803C22.1721 15.8574 21.2055 17.8894 19.6794 19.4634C18.1533 21.0374 16.1521 22.0662 13.984 22.3916C11.8159 22.7169 9.60092 22.3208 7.68 21.264L3.792 22.448C3.61858 22.5009 3.43407 22.5056 3.25819 22.4616C3.08231 22.4177 2.92168 22.3267 2.7935 22.1985C2.66531 22.0704 2.57438 21.9097 2.53043 21.7338C2.48648 21.558 2.49117 21.3735 2.544 21.2L3.728 17.306C2.92153 15.8326 2.4992 14.1797 2.5 12.5ZM12.5 4.50003C11.0799 4.49992 9.68532 4.87782 8.45956 5.59495C7.2338 6.31207 6.22102 7.34255 5.52526 8.58056C4.82949 9.81856 4.47581 11.2195 4.50054 12.6394C4.52528 14.0593 4.92754 15.447 5.666 16.66C5.73931 16.7805 5.78629 16.9152 5.80387 17.0551C5.82145 17.1951 5.80923 17.3371 5.768 17.472L5.002 19.99L7.516 19.224C7.65132 19.1828 7.79384 19.1708 7.93416 19.1887C8.07448 19.2066 8.20939 19.2541 8.33 19.328C9.38436 19.9718 10.5735 20.3626 11.8041 20.4698C13.0348 20.5771 14.2736 20.3979 15.4234 19.9463C16.5732 19.4946 17.6029 18.7829 18.4316 17.8667C19.2603 16.9506 19.8656 15.855 20.2 14.6658C20.5344 13.4766 20.5889 12.2261 20.3592 11.0123C20.1295 9.79854 19.6218 8.65445 18.8759 7.66971C18.13 6.68497 17.1662 5.88635 16.06 5.33643C14.9538 4.7865 13.7353 4.50023 12.5 4.50003Z" fill="white"/>
</svg>
