<svg width="1440" height="1440" viewBox="0 0 1440 1440" fill="none" xmlns="http://www.w3.org/2000/svg">
<circle cx="720" cy="720" r="720" fill="white" fill-opacity="0.2"/>
<circle cx="720" cy="720" r="718.953" stroke="#888888" stroke-opacity="0.2" stroke-width="2.09333"/>
<circle cx="720" cy="720" r="704" fill="white" fill-opacity="0.2" stroke="#888888" stroke-opacity="0.2" stroke-width="20" stroke-dasharray="2.91 5"/>
<path fill-rule="evenodd" clip-rule="evenodd" d="M348.292 872.667V851.087C348.292 850.233 348.976 849.542 349.833 849.542C350.684 849.542 351.375 850.219 351.375 851.087V881.913C351.375 882.767 350.692 883.458 349.833 883.458C348.982 883.458 348.292 882.781 348.292 881.913V875.75H325.167C324.316 875.75 323.625 875.066 323.625 874.208C323.625 873.357 324.326 872.667 325.167 872.667H332.875C336.28 872.667 339.042 869.905 339.042 866.5C339.042 863.095 336.28 860.333 332.875 860.333C329.47 860.333 326.708 863.095 326.708 866.5C326.708 867.351 326.019 868.042 325.167 868.042C324.316 868.042 323.625 867.351 323.625 866.5C323.625 861.391 327.766 857.25 332.875 857.25C337.984 857.25 342.125 861.391 342.125 866.5C342.125 868.869 341.235 871.03 339.769 872.667L348.292 872.667Z" fill="black" fill-opacity="0.04"/>
<path d="M370.864 900.79L367.132 896.88C366.984 896.727 366.808 896.605 366.616 896.521L366.59 896.514V896.512C366.408 896.437 366.215 896.397 366.018 896.397C365.822 896.397 365.627 896.437 365.445 896.512L365.42 896.519V896.521C365.227 896.603 365.051 896.727 364.904 896.88L361.171 900.79C360.574 901.436 360.582 902.466 361.189 903.104C361.798 903.74 362.779 903.748 363.398 903.123L364.448 902.028V904.571C364.448 909.614 360.59 913.794 355.58 914.532V902.028L356.63 903.123C356.924 903.441 357.327 903.623 357.749 903.626C358.172 903.63 358.578 903.456 358.878 903.143C359.176 902.83 359.342 902.404 359.339 901.962C359.334 901.519 359.162 901.098 358.858 900.79L355.116 896.88C354.968 896.727 354.793 896.605 354.599 896.521L354.574 896.514V896.512C354.392 896.437 354.197 896.397 354 896.397C353.803 896.397 353.61 896.437 353.428 896.512L353.403 896.519L353.401 896.521C353.209 896.605 353.034 896.727 352.886 896.88L349.154 900.79C348.557 901.436 348.565 902.466 349.172 903.104C349.78 903.74 350.763 903.748 351.38 903.123L352.43 902.028V914.53C347.419 913.793 343.563 909.614 343.563 904.57V902.028L344.613 903.122C345.231 903.748 346.214 903.739 346.821 903.104C347.428 902.466 347.438 901.436 346.841 900.79L343.098 896.88C342.951 896.727 342.775 896.603 342.583 896.521L342.555 896.512C342.373 896.437 342.178 896.397 341.983 896.397C341.786 896.397 341.592 896.437 341.41 896.512L341.384 896.519V896.521C341.192 896.605 341.016 896.727 340.869 896.88L337.136 900.79C336.521 901.435 336.521 902.48 337.136 903.124C337.751 903.767 338.749 903.767 339.364 903.122L340.408 902.028V904.571C340.408 911.427 345.671 917.089 352.425 917.861V921.138L350.02 921.14C349.15 921.14 348.445 921.879 348.445 922.79C348.445 923.701 349.15 924.44 350.02 924.44H352.425V925.954C352.425 926.865 353.131 927.604 354 927.604C354.87 927.604 355.575 926.865 355.575 925.954V924.44H357.98C358.85 924.44 359.555 923.701 359.555 922.79C359.555 921.879 358.85 921.14 357.98 921.14H355.575V917.862C362.33 917.092 367.593 911.429 367.593 904.573V902.028L368.636 903.122C369.251 903.767 370.249 903.767 370.864 903.124C371.159 902.815 371.325 902.394 371.325 901.957C371.325 901.519 371.159 901.099 370.864 900.79L370.864 900.79Z" fill="black" fill-opacity="0.04"/>
<path d="M347.75 692.125C347.252 692.125 346.776 692.323 346.424 692.674C346.072 693.026 345.875 693.503 345.875 694C345.875 696.25 345.5 701.5 342.125 701.5C339.425 701.5 338.375 700.45 338.375 697.75C338.772 695.546 339.519 693.419 340.587 691.45C342.462 687.137 344.525 682.675 342.575 679.637C341.861 678.734 340.928 678.029 339.865 677.589C338.801 677.149 337.643 676.989 336.5 677.125C335.403 677.117 334.32 677.372 333.342 677.868C332.363 678.364 331.517 679.086 330.875 679.975V677.125H332.75C333.247 677.125 333.724 676.927 334.076 676.576C334.427 676.224 334.625 675.747 334.625 675.25C334.625 674.753 334.427 674.276 334.076 673.924C333.724 673.573 333.247 673.375 332.75 673.375H330.875V669.625C330.875 669.128 330.677 668.651 330.326 668.299C329.974 667.948 329.497 667.75 329 667.75C328.502 667.75 328.026 667.948 327.674 668.299C327.322 668.651 327.125 669.128 327.125 669.625V673.375H325.25C324.752 673.375 324.276 673.573 323.924 673.924C323.572 674.276 323.375 674.753 323.375 675.25C323.375 675.747 323.572 676.224 323.924 676.576C324.276 676.927 324.752 677.125 325.25 677.125H327.125V694C327.125 694.497 327.322 694.974 327.674 695.326C328.026 695.677 328.502 695.875 329 695.875C329.497 695.875 329.974 695.677 330.326 695.326C330.677 694.974 330.875 694.497 330.875 694C330.875 690.587 331.925 680.875 336.5 680.875C338.037 680.875 339.087 681.156 339.425 681.662C340.269 682.994 338.394 687.156 337.156 689.912C335.828 692.343 334.97 695.002 334.625 697.75C334.519 698.761 334.64 699.783 334.979 700.741C335.319 701.699 335.868 702.569 336.586 703.288C337.305 704.007 338.176 704.556 339.134 704.896C340.092 705.235 341.114 705.356 342.125 705.25C346.812 705.25 349.625 701.05 349.625 694C349.625 693.503 349.427 693.026 349.076 692.674C348.724 692.323 348.247 692.125 347.75 692.125Z" fill="black" fill-opacity="0.04"/>
<path d="M692 1088L465 983" stroke="#BDBDBD" stroke-opacity="0.2" stroke-width="2" stroke-linecap="round" stroke-linejoin="round"/>
<path d="M372.724 603L398.153 893M355 693L617 1073" stroke="#BDBDBD" stroke-opacity="0.2" stroke-width="2" stroke-linecap="round" stroke-linejoin="round"/>
<path d="M355 742L617 1073" stroke="#BDBDBD" stroke-opacity="0.2" stroke-width="2" stroke-linecap="round" stroke-linejoin="round"/>
<path d="M309.75 687.625H305.061L308.526 684.462C308.672 684.345 308.793 684.199 308.881 684.034C308.968 683.868 309.021 683.686 309.036 683.499C309.051 683.312 309.027 683.124 308.967 682.947C308.906 682.77 308.81 682.606 308.685 682.468C308.559 682.329 308.406 682.217 308.235 682.139C308.065 682.061 307.88 682.019 307.693 682.016C307.505 682.012 307.319 682.047 307.146 682.117C306.972 682.188 306.815 682.294 306.684 682.428L302.875 685.892V682.125C302.875 681.76 302.73 681.411 302.472 681.153C302.214 680.895 301.865 680.75 301.5 680.75C301.135 680.75 300.786 680.895 300.528 681.153C300.27 681.411 300.125 681.76 300.125 682.125V685.892L296.316 682.428C296.043 682.208 295.696 682.101 295.347 682.129C294.997 682.157 294.671 682.317 294.436 682.577C294.201 682.837 294.074 683.177 294.081 683.527C294.088 683.878 294.228 684.212 294.474 684.462L297.939 687.625H293.25C292.885 687.625 292.536 687.77 292.278 688.028C292.02 688.286 291.875 688.635 291.875 689C291.875 689.365 292.02 689.714 292.278 689.972C292.536 690.23 292.885 690.375 293.25 690.375H297.939L294.474 693.538C294.287 693.727 294.16 693.967 294.107 694.227C294.054 694.488 294.078 694.758 294.175 695.005C294.273 695.253 294.44 695.467 294.656 695.621C294.873 695.775 295.129 695.864 295.395 695.875C295.736 695.874 296.064 695.747 296.316 695.517L300.125 692.108V701.375H298.75C298.385 701.375 298.036 701.52 297.778 701.778C297.52 702.036 297.375 702.385 297.375 702.75C297.375 703.115 297.52 703.464 297.778 703.722C298.036 703.98 298.385 704.125 298.75 704.125H300.125V706.875C300.125 707.24 300.27 707.589 300.528 707.847C300.786 708.105 301.135 708.25 301.5 708.25C301.865 708.25 302.214 708.105 302.472 707.847C302.73 707.589 302.875 707.24 302.875 706.875V704.125H304.25C304.615 704.125 304.964 703.98 305.222 703.722C305.48 703.464 305.625 703.115 305.625 702.75C305.625 702.385 305.48 702.036 305.222 701.778C304.964 701.52 304.615 701.375 304.25 701.375H302.875V692.108L306.684 695.572C306.936 695.802 307.264 695.929 307.605 695.93C307.882 695.929 308.153 695.845 308.381 695.688C308.609 695.53 308.785 695.308 308.885 695.049C308.984 694.79 309.003 694.508 308.939 694.238C308.875 693.968 308.731 693.724 308.526 693.538L305.061 690.375H309.75C310.115 690.375 310.464 690.23 310.722 689.972C310.98 689.714 311.125 689.365 311.125 689C311.125 688.635 310.98 688.286 310.722 688.028C310.464 687.77 310.115 687.625 309.75 687.625Z" fill="black" fill-opacity="0.04"/>
<path d="M631.875 1120.92H628.458V1103.83H631.875C632.328 1103.83 632.763 1103.65 633.083 1103.33C633.403 1103.01 633.583 1102.58 633.583 1102.12C633.583 1101.67 633.403 1101.24 633.083 1100.92C632.763 1100.6 632.328 1100.42 631.875 1100.42H626.75C626.297 1100.42 625.863 1100.6 625.542 1100.92C625.222 1101.24 625.042 1101.67 625.042 1102.12V1110.67H618.208V1102.12C618.208 1101.67 618.028 1101.24 617.708 1100.92C617.388 1100.6 616.953 1100.42 616.5 1100.42C616.047 1100.42 615.613 1100.6 615.292 1100.92C614.972 1101.24 614.792 1101.67 614.792 1102.12V1110.67H607.958V1102.12C607.958 1101.67 607.778 1101.24 607.458 1100.92C607.138 1100.6 606.703 1100.42 606.25 1100.42H601.125C600.672 1100.42 600.238 1100.6 599.917 1100.92C599.597 1101.24 599.417 1101.67 599.417 1102.12C599.417 1102.58 599.597 1103.01 599.917 1103.33C600.238 1103.65 600.672 1103.83 601.125 1103.83H604.542V1120.92H601.125C600.672 1120.92 600.238 1121.1 599.917 1121.42C599.597 1121.74 599.417 1122.17 599.417 1122.62C599.417 1123.08 599.597 1123.51 599.917 1123.83C600.238 1124.15 600.672 1124.33 601.125 1124.33H606.25C606.703 1124.33 607.138 1124.15 607.458 1123.83C607.778 1123.51 607.958 1123.08 607.958 1122.62V1114.08H614.792V1121.16C613.181 1121.57 611.778 1122.56 610.845 1123.94C609.911 1125.31 609.512 1126.98 609.721 1128.63C609.931 1130.28 610.735 1131.8 611.983 1132.9C613.231 1134 614.837 1134.61 616.5 1134.61C618.163 1134.61 619.769 1134 621.017 1132.9C622.265 1131.8 623.069 1130.28 623.279 1128.63C623.489 1126.98 623.089 1125.31 622.156 1123.94C621.222 1122.56 619.819 1121.57 618.208 1121.16V1114.08H625.042V1122.62C625.042 1123.08 625.222 1123.51 625.542 1123.83C625.863 1124.15 626.297 1124.33 626.75 1124.33H631.875C632.328 1124.33 632.763 1124.15 633.083 1123.83C633.403 1123.51 633.583 1123.08 633.583 1122.62C633.583 1122.17 633.403 1121.74 633.083 1121.42C632.763 1121.1 632.328 1120.92 631.875 1120.92ZM619.917 1127.75C619.917 1128.43 619.716 1129.09 619.341 1129.65C618.966 1130.21 618.432 1130.65 617.808 1130.91C617.183 1131.17 616.496 1131.23 615.834 1131.1C615.171 1130.97 614.562 1130.64 614.084 1130.17C613.606 1129.69 613.281 1129.08 613.149 1128.42C613.017 1127.75 613.085 1127.07 613.344 1126.44C613.602 1125.82 614.04 1125.28 614.602 1124.91C615.164 1124.53 615.824 1124.33 616.5 1124.33C617.406 1124.33 618.275 1124.69 618.916 1125.33C619.557 1125.97 619.917 1126.84 619.917 1127.75Z" fill="black" fill-opacity="0.04"/>
<path d="M968.9 1058.13C964.793 1056.94 961.907 1053.13 961.907 1048.88C961.907 1044.62 964.793 1040.77 968.9 1039.63C969.381 1039.48 969.714 1039.07 969.714 1038.55C969.714 1038.04 969.381 1037.59 968.9 1037.48C967.827 1037.18 966.754 1037.04 965.644 1037.04C959.095 1037.04 953.767 1042.36 953.767 1048.91C953.767 1053.58 956.468 1057.61 960.353 1059.53V1063.38H954.47C953.841 1063.38 953.36 1063.86 953.36 1064.49C953.36 1065.12 953.841 1065.6 954.47 1065.6H960.39V1071.15C960.39 1071.78 960.871 1072.26 961.5 1072.26C962.129 1072.26 962.61 1071.78 962.61 1071.15V1065.6H968.16C968.789 1065.6 969.27 1065.12 969.27 1064.49C969.27 1063.86 968.789 1063.38 968.16 1063.38H962.61V1060.35C963.572 1060.61 964.608 1060.75 965.644 1060.75C966.754 1060.75 967.827 1060.61 968.9 1060.31C969.381 1060.16 969.714 1059.75 969.714 1059.24C969.714 1058.72 969.381 1058.27 968.9 1058.13ZM956.024 1048.88C956.024 1043.92 959.798 1039.81 964.608 1039.29C961.611 1041.48 959.724 1045.03 959.724 1048.88C959.724 1052.72 961.611 1056.28 964.608 1058.46C959.761 1057.9 956.024 1053.83 956.024 1048.88Z" fill="black" fill-opacity="0.04"/>
<path d="M862.291 1105.88C862.291 1103.01 861.154 1100.27 859.131 1098.24C857.107 1096.22 854.362 1095.08 851.5 1095.08C848.638 1095.08 845.893 1096.22 843.869 1098.24C841.845 1100.27 840.708 1103.01 840.708 1105.88C840.708 1106.28 840.87 1106.68 841.16 1106.97C841.449 1107.25 841.841 1107.42 842.25 1107.42C842.659 1107.42 843.051 1107.25 843.34 1106.97C843.629 1106.68 843.791 1106.28 843.791 1105.88C843.791 1104.35 844.243 1102.86 845.09 1101.59C845.937 1100.32 847.141 1099.34 848.55 1098.75C849.958 1098.17 851.508 1098.02 853.003 1098.31C854.499 1098.61 855.872 1099.35 856.95 1100.42C858.028 1101.5 858.762 1102.88 859.06 1104.37C859.357 1105.87 859.205 1107.42 858.621 1108.82C858.038 1110.23 857.05 1111.44 855.782 1112.28C854.515 1113.13 853.024 1113.58 851.5 1113.58C851.091 1113.58 850.699 1113.75 850.41 1114.03C850.12 1114.32 849.958 1114.72 849.958 1115.13V1118.21H848.416C848.007 1118.21 847.615 1118.37 847.326 1118.66C847.037 1118.95 846.875 1119.34 846.875 1119.75C846.875 1120.16 847.037 1120.55 847.326 1120.84C847.615 1121.13 848.007 1121.29 848.416 1121.29H849.958V1124.38C849.958 1124.78 850.12 1125.18 850.41 1125.47C850.699 1125.75 851.091 1125.92 851.5 1125.92C851.909 1125.92 852.301 1125.75 852.59 1125.47C852.879 1125.18 853.041 1124.78 853.041 1124.38V1121.29H854.583C854.992 1121.29 855.384 1121.13 855.673 1120.84C855.962 1120.55 856.125 1120.16 856.125 1119.75C856.125 1119.34 855.962 1118.95 855.673 1118.66C855.384 1118.37 854.992 1118.21 854.583 1118.21H853.041V1116.54C855.608 1116.17 857.955 1114.89 859.653 1112.93C861.352 1110.97 862.288 1108.47 862.291 1105.88Z" fill="black" fill-opacity="0.04"/>
<path d="M578.458 1090.53C578.606 1090.38 578.724 1090.2 578.804 1090C578.884 1089.8 578.926 1089.59 578.926 1089.38C578.926 1089.16 578.884 1088.95 578.804 1088.75C578.724 1088.55 578.606 1088.37 578.458 1088.22L572.124 1081.72C571.977 1081.57 571.802 1081.45 571.609 1081.37C571.416 1081.28 571.209 1081.24 571 1081.24C570.791 1081.24 570.584 1081.28 570.391 1081.37C570.198 1081.45 570.023 1081.57 569.876 1081.72L563.543 1088.22C563.394 1088.37 563.276 1088.55 563.196 1088.75C563.116 1088.95 563.074 1089.16 563.074 1089.38C563.074 1089.59 563.116 1089.8 563.196 1090C563.276 1090.2 563.394 1090.38 563.543 1090.53L569.417 1096.54V1105.63H566.25C565.83 1105.63 565.427 1105.8 565.13 1106.1C564.833 1106.41 564.667 1106.82 564.667 1107.25C564.667 1107.68 564.833 1108.09 565.13 1108.4C565.427 1108.7 565.83 1108.88 566.25 1108.88H569.417V1112.13C569.417 1112.56 569.583 1112.97 569.88 1113.27C570.177 1113.58 570.58 1113.75 571 1113.75C571.42 1113.75 571.823 1113.58 572.12 1113.27C572.417 1112.97 572.583 1112.56 572.583 1112.13V1108.88H575.75C576.17 1108.88 576.573 1108.7 576.87 1108.4C577.167 1108.09 577.333 1107.68 577.333 1107.25C577.333 1106.82 577.167 1106.41 576.87 1106.1C576.573 1105.8 576.17 1105.63 575.75 1105.63H572.583V1096.54L578.458 1090.53ZM571 1085.17L575.101 1089.38L571 1093.58L566.899 1089.38L571 1085.17Z" fill="black" fill-opacity="0.04"/>
<path d="M326.458 740.375C326.461 738.082 325.804 735.837 324.567 733.907C323.329 731.977 321.563 730.443 319.478 729.488C317.394 728.534 315.079 728.199 312.809 728.523C310.539 728.847 308.41 729.817 306.676 731.317C304.942 732.817 303.676 734.784 303.028 736.983C302.381 739.182 302.379 741.522 303.023 743.722C303.668 745.922 304.931 747.891 306.663 749.394C308.395 750.896 310.522 751.869 312.791 752.197V754.042H311.083C310.63 754.042 310.195 754.222 309.875 754.542C309.554 754.862 309.374 755.297 309.374 755.75C309.374 756.203 309.554 756.638 309.875 756.958C310.195 757.278 310.63 757.458 311.083 757.458H312.791V760.875C312.791 761.328 312.971 761.763 313.292 762.083C313.612 762.403 314.046 762.583 314.499 762.583C314.953 762.583 315.387 762.403 315.707 762.083C316.028 761.763 316.208 761.328 316.208 760.875V757.458H317.916C318.369 757.458 318.804 757.278 319.124 756.958C319.445 756.638 319.624 756.203 319.624 755.75C319.624 755.297 319.445 754.862 319.124 754.542C318.804 754.222 318.369 754.042 317.916 754.042H316.208V752.197C319.052 751.786 321.652 750.366 323.535 748.195C325.417 746.024 326.454 743.248 326.458 740.375ZM305.958 740.375C305.958 738.686 306.459 737.034 307.397 735.63C308.336 734.225 309.67 733.13 311.231 732.484C312.792 731.837 314.509 731.668 316.166 731.998C317.823 732.327 319.345 733.141 320.539 734.335C321.734 735.53 322.547 737.052 322.877 738.709C323.207 740.366 323.037 742.083 322.391 743.644C321.744 745.205 320.65 746.539 319.245 747.477C317.84 748.416 316.189 748.917 314.499 748.917C312.234 748.917 310.061 748.017 308.46 746.415C306.858 744.813 305.958 742.64 305.958 740.375Z" fill="black" fill-opacity="0.04"/>
<path d="M355.534 624.367C355.365 623.959 355.041 623.636 354.634 623.467C354.434 623.381 354.218 623.336 354.001 623.333H345.667C345.225 623.333 344.801 623.509 344.489 623.822C344.176 624.134 344.001 624.558 344.001 625C344.001 625.442 344.176 625.866 344.489 626.179C344.801 626.491 345.225 626.667 345.667 626.667H349.984L343.834 632.817C341.505 630.988 338.628 629.996 335.667 630C333.03 630 330.452 630.782 328.26 632.247C326.067 633.712 324.358 635.795 323.349 638.231C322.34 640.667 322.076 643.348 322.59 645.935C323.105 648.521 324.374 650.897 326.239 652.761C328.104 654.626 330.48 655.896 333.066 656.411C335.652 656.925 338.333 656.661 340.77 655.652C343.206 654.643 345.288 652.934 346.754 650.741C348.219 648.548 349.001 645.97 349.001 643.333C349.004 640.372 348.012 637.496 346.184 635.167L352.334 629.017V633.333C352.334 633.775 352.51 634.199 352.822 634.512C353.135 634.824 353.559 635 354.001 635C354.443 635 354.867 634.824 355.179 634.512C355.492 634.199 355.667 633.775 355.667 633.333V625C355.665 624.782 355.619 624.567 355.534 624.367ZM335.667 653.333C333.689 653.333 331.756 652.747 330.112 651.648C328.467 650.549 327.185 648.987 326.428 647.16C325.672 645.333 325.474 643.322 325.859 641.382C326.245 639.443 327.198 637.661 328.596 636.262C329.995 634.864 331.777 633.911 333.716 633.526C335.656 633.14 337.667 633.338 339.494 634.095C341.321 634.851 342.883 636.133 343.982 637.778C345.081 639.422 345.667 641.356 345.667 643.333C345.667 645.986 344.614 648.529 342.738 650.404C340.863 652.28 338.319 653.333 335.667 653.333Z" fill="black" fill-opacity="0.04"/>
<path d="M677.084 1142.54C677.084 1143.97 677.652 1145.34 678.664 1146.35C679.676 1147.36 681.048 1147.93 682.48 1147.93C683.911 1147.93 685.283 1147.36 686.295 1146.35C687.307 1145.34 687.875 1143.97 687.875 1142.54C687.871 1142.09 687.814 1141.64 687.706 1141.21C687.64 1140.95 687.557 1140.7 687.459 1140.45C687.459 1140.45 687.382 1140.3 687.336 1140.21L687.105 1139.76L686.92 1139.5L686.657 1139.13L686.442 1138.88L686.118 1138.56L685.871 1138.36C685.76 1138.26 685.641 1138.16 685.517 1138.08L685.239 1137.91C685.111 1137.83 684.977 1137.75 684.838 1137.68L684.561 1137.56L684.067 1137.39L683.821 1137.31L683.744 1137.31C682.398 1135.47 681.684 1133.24 681.709 1130.96C681.709 1128.1 682.846 1125.35 684.869 1123.33C686.893 1121.3 689.638 1120.17 692.5 1120.17C695.362 1120.17 698.107 1121.3 700.131 1123.33C702.155 1125.35 703.292 1128.1 703.292 1130.96C703.31 1133.23 702.596 1135.45 701.257 1137.28L701.01 1137.36L700.517 1137.53L700.209 1137.68L699.792 1137.91L699.53 1138.08C699.39 1138.16 699.256 1138.26 699.13 1138.36L698.883 1138.56L698.559 1138.88L698.343 1139.13L698.066 1139.5C698.015 1139.59 697.958 1139.68 697.896 1139.76C697.808 1139.9 697.73 1140.05 697.665 1140.21C697.618 1140.28 697.577 1140.36 697.542 1140.44C697.443 1140.69 697.361 1140.94 697.295 1141.19C697.185 1141.63 697.128 1142.08 697.125 1142.54C697.123 1143.51 697.384 1144.47 697.881 1145.3C698.378 1146.14 699.092 1146.83 699.947 1147.29C700.803 1147.75 701.768 1147.98 702.74 1147.94C703.713 1147.9 704.657 1147.6 705.472 1147.07C706.286 1146.53 706.942 1145.79 707.369 1144.92C707.797 1144.04 707.979 1143.07 707.898 1142.1C707.817 1141.13 707.475 1140.2 706.908 1139.41C706.342 1138.62 705.572 1137.99 704.68 1137.6C705.692 1135.75 706.268 1133.68 706.362 1131.57C706.456 1129.46 706.065 1127.35 705.221 1125.42C704.377 1123.48 703.101 1121.76 701.491 1120.39C699.88 1119.02 697.978 1118.03 695.929 1117.51C693.88 1116.99 691.739 1116.94 689.67 1117.37C687.6 1117.8 685.656 1118.7 683.986 1120C682.317 1121.3 680.966 1122.96 680.037 1124.86C679.108 1126.76 678.625 1128.84 678.625 1130.96C678.624 1133.28 679.207 1135.56 680.321 1137.59C679.357 1138.01 678.537 1138.7 677.962 1139.58C677.386 1140.46 677.081 1141.49 677.084 1142.54ZM702.521 1144.83C701.911 1144.83 701.325 1144.59 700.891 1144.16C700.458 1143.73 700.213 1143.15 700.209 1142.54C700.188 1142.34 700.188 1142.15 700.209 1141.95C700.314 1141.5 700.552 1141.09 700.894 1140.78C701.235 1140.47 701.663 1140.27 702.12 1140.21L702.521 1140.21C703.134 1140.21 703.723 1140.45 704.156 1140.89C704.59 1141.32 704.834 1141.91 704.834 1142.52C704.834 1143.13 704.59 1143.72 704.156 1144.16C703.723 1144.59 703.134 1144.83 702.521 1144.83ZM682.48 1144.83C681.866 1144.83 681.278 1144.59 680.844 1144.16C680.411 1143.72 680.167 1143.13 680.167 1142.52C680.167 1141.91 680.411 1141.32 680.844 1140.89C681.278 1140.45 681.866 1140.21 682.48 1140.21L682.742 1140.21C682.919 1140.23 683.091 1140.28 683.25 1140.36L683.466 1140.36C683.616 1140.43 683.756 1140.52 683.882 1140.62C683.944 1140.65 684.002 1140.69 684.052 1140.73C684.181 1140.85 684.295 1140.99 684.391 1141.13L684.484 1141.24C684.607 1141.44 684.701 1141.66 684.761 1141.89C684.797 1142.1 684.807 1142.32 684.792 1142.54C684.788 1143.15 684.542 1143.73 684.109 1144.16C683.676 1144.59 683.09 1144.83 682.48 1144.83Z" fill="black" fill-opacity="0.04"/>
<path d="M441.041 1003.5C441.031 1000.78 440.178 998.137 438.604 995.947L440.575 993.728C440.749 993.553 440.887 993.344 440.979 993.112C441.071 992.881 441.116 992.633 441.112 992.383C441.107 992.133 441.052 991.887 440.951 991.66C440.849 991.432 440.704 991.228 440.523 991.061C440.342 990.893 440.129 990.765 439.898 990.684C439.667 990.604 439.422 990.572 439.179 990.592C438.935 990.612 438.698 990.682 438.482 990.799C438.266 990.916 438.076 991.077 437.923 991.272L436.132 993.325C433.958 991.601 431.285 990.665 428.535 990.665C425.784 990.665 423.112 991.601 420.938 993.325L419.147 991.272C418.828 990.902 418.379 990.677 417.899 990.646C417.419 990.615 416.946 990.781 416.585 991.107C416.223 991.432 416.004 991.892 415.973 992.383C415.943 992.875 416.105 993.359 416.423 993.728L418.376 995.947C417.125 997.733 416.343 999.818 416.106 1002C415.868 1004.19 416.182 1006.4 417.018 1008.42C417.855 1010.44 419.185 1012.21 420.881 1013.56C422.578 1014.91 424.584 1015.79 426.707 1016.11V1018.17H424.916C424.441 1018.17 423.985 1018.36 423.649 1018.7C423.313 1019.05 423.124 1019.51 423.124 1020C423.124 1020.49 423.313 1020.95 423.649 1021.3C423.985 1021.64 424.441 1021.83 424.916 1021.83H426.707V1025.5C426.707 1025.99 426.896 1026.45 427.232 1026.8C427.568 1027.14 428.024 1027.33 428.499 1027.33C428.974 1027.33 429.43 1027.14 429.766 1026.8C430.102 1026.45 430.291 1025.99 430.291 1025.5V1021.83H432.082C432.558 1021.83 433.013 1021.64 433.349 1021.3C433.685 1020.95 433.874 1020.49 433.874 1020C433.874 1019.51 433.685 1019.05 433.349 1018.7C433.013 1018.36 432.558 1018.17 432.082 1018.17H430.291V1016.19C433.273 1015.75 436.001 1014.22 437.975 1011.89C439.949 1009.56 441.037 1006.58 441.041 1003.5ZM419.541 1003.5C419.541 1001.69 420.066 999.915 421.051 998.407C422.035 996.9 423.434 995.725 425.071 995.031C426.708 994.337 428.509 994.156 430.247 994.51C431.985 994.863 433.581 995.736 434.834 997.018C436.086 998.3 436.94 999.934 437.285 1001.71C437.631 1003.49 437.454 1005.33 436.776 1007.01C436.098 1008.68 434.949 1010.11 433.476 1011.12C432.003 1012.13 430.271 1012.67 428.499 1012.67C426.123 1012.67 423.845 1011.7 422.165 1009.98C420.485 1008.26 419.541 1005.93 419.541 1003.5Z" fill="black" fill-opacity="0.04"/>
<path d="M516.674 228L721.957 716.074M721.957 716.074H192M721.957 716.074H1251M721.957 716.074L922.477 1212" stroke="#888888" stroke-opacity="0.2" stroke-width="2" stroke-linecap="round" stroke-linejoin="round"/>
<circle cx="720" cy="720" r="445" stroke="#888888" stroke-opacity="0.2" stroke-width="2"/>
<circle cx="720" cy="720" r="532" stroke="#888888" stroke-opacity="0.2" stroke-width="2"/>
<path d="M310.86 1167.91C320.917 1167.91 329.098 1178.89 329.098 1192.38V1225.49C329.1 1226.13 329.354 1226.74 329.804 1227.18C330.254 1227.63 330.864 1227.89 331.5 1227.89C332.136 1227.89 332.745 1227.63 333.196 1227.18C333.646 1226.74 333.9 1226.13 333.901 1225.49V1192.38C333.901 1178.89 342.083 1167.91 352.139 1167.91C355.203 1168 358.178 1168.95 360.726 1170.66C363.275 1172.36 365.292 1174.75 366.548 1177.54C366.703 1177.97 366.971 1178.34 367.324 1178.63C367.677 1178.92 368.101 1179.1 368.551 1179.16C369.001 1179.23 369.459 1179.17 369.877 1178.99C370.295 1178.81 370.657 1178.52 370.924 1178.16C371.136 1177.86 371.277 1177.52 371.335 1177.15C371.393 1176.79 371.366 1176.42 371.258 1176.07C368.658 1167.65 359.467 1163.11 352.139 1163.11C344.309 1163.11 337.073 1168.15 332.784 1176.58C332.651 1176.8 332.462 1176.99 332.237 1177.11C332.012 1177.24 331.758 1177.31 331.5 1177.31C331.241 1177.31 330.988 1177.24 330.763 1177.11C330.538 1176.99 330.349 1176.8 330.216 1176.58C325.927 1168.15 318.691 1163.11 310.86 1163.11C303.533 1163.11 294.341 1167.65 291.743 1176.07C291.636 1176.43 291.611 1176.8 291.67 1177.16C291.729 1177.52 291.87 1177.87 292.083 1178.17C292.296 1178.47 292.575 1178.72 292.899 1178.89C293.222 1179.07 293.581 1179.17 293.949 1179.18C294.49 1179.23 295.03 1179.09 295.483 1178.79C295.937 1178.49 296.278 1178.05 296.452 1177.54C297.708 1174.74 299.725 1172.36 302.273 1170.66C304.821 1168.95 307.797 1168 310.86 1167.91Z" fill="#666666" fill-opacity="0.15"/>
<path d="M70.398 645.804C69.943 645.348 69.6875 644.731 69.6875 644.087C69.6875 643.443 69.943 642.826 70.398 642.37L81.8553 630.912C81.8894 630.864 81.9346 630.824 81.987 630.797C82.0395 630.77 82.0978 630.755 82.1569 630.755C82.2161 630.755 82.2743 630.77 82.3268 630.797C82.3793 630.824 82.4245 630.864 82.4585 630.912L95.0531 643.507C95.3317 643.77 95.7005 643.916 96.0837 643.916C96.467 643.916 96.8357 643.77 97.1143 643.507L109.693 630.91C109.727 630.862 109.772 630.823 109.824 630.796C109.877 630.769 109.935 630.755 109.993 630.755C110.052 630.755 110.11 630.769 110.163 630.796C110.215 630.823 110.26 630.862 110.294 630.91L122.891 643.507C123.169 643.77 123.538 643.916 123.921 643.916C124.304 643.916 124.673 643.77 124.952 643.507L137.529 630.912C137.562 630.862 137.607 630.821 137.659 630.793C137.712 630.764 137.77 630.749 137.83 630.749C137.89 630.749 137.948 630.763 138.001 630.792C138.054 630.82 138.098 630.86 138.132 630.91L149.602 642.382C149.828 642.607 150.006 642.875 150.128 643.169C150.25 643.464 150.313 643.78 150.313 644.098C150.313 644.417 150.25 644.733 150.128 645.028C150.006 645.322 149.827 645.59 149.602 645.815C149.377 646.041 149.109 646.219 148.814 646.342C148.52 646.464 148.204 646.526 147.885 646.526C147.566 646.526 147.251 646.464 146.956 646.341C146.661 646.219 146.394 646.041 146.168 645.815L138.864 638.512C138.591 638.238 138.22 638.085 137.834 638.085H137.833C137.446 638.085 137.076 638.238 136.803 638.512L124.213 651.119C124.136 651.196 124.032 651.238 123.924 651.238C123.816 651.238 123.712 651.196 123.635 651.119L111.026 638.512C110.753 638.238 110.383 638.085 109.996 638.085H109.995C109.609 638.085 109.238 638.238 108.965 638.512L96.3754 651.119C96.2985 651.196 96.1947 651.238 96.0865 651.238C95.9784 651.238 95.8746 651.196 95.7977 651.119L83.187 638.51C83.0517 638.374 82.8911 638.267 82.7144 638.194C82.5376 638.121 82.3482 638.083 82.1569 638.083C81.9656 638.083 81.7761 638.121 81.5994 638.194C81.4226 638.267 81.262 638.374 81.1268 638.51L73.8316 645.804C73.3753 646.257 72.7581 646.512 72.1148 646.512C71.4715 646.512 70.8543 646.257 70.398 645.804ZM138.096 652.899C138.061 652.864 138.02 652.836 137.975 652.817C137.93 652.798 137.881 652.789 137.832 652.789C137.782 652.788 137.733 652.798 137.687 652.817C137.642 652.836 137.6 652.864 137.565 652.899L124.952 665.531C124.679 665.805 124.308 665.958 123.922 665.958H123.921C123.534 665.958 123.164 665.805 122.891 665.531L110.258 652.899C110.224 652.864 110.183 652.836 110.137 652.817C110.092 652.798 110.043 652.789 109.994 652.789C109.945 652.788 109.896 652.798 109.85 652.817C109.804 652.836 109.763 652.864 109.728 652.899L97.1143 665.531C96.841 665.805 96.4705 665.958 96.0841 665.958H96.0832C95.6968 665.958 95.3263 665.805 95.0531 665.531L82.4216 652.899C82.3467 652.838 82.2533 652.805 82.1569 652.805C82.0606 652.805 81.9671 652.838 81.8923 652.899L70.398 664.393C69.9424 664.849 69.6863 665.466 69.6862 666.11C69.686 666.754 69.9417 667.372 70.397 667.828C70.8524 668.283 71.47 668.539 72.1141 668.54C72.7583 668.54 73.3761 668.284 73.8316 667.829L81.1268 660.535C81.262 660.399 81.4226 660.292 81.5994 660.219C81.7761 660.145 81.9656 660.108 82.1569 660.108C82.3482 660.108 82.5376 660.145 82.7144 660.219C82.8911 660.292 83.0517 660.399 83.187 660.535L95.7788 673.125C95.8607 673.206 95.9713 673.251 96.0864 673.251C96.2016 673.251 96.3119 673.205 96.3933 673.123L108.965 660.536C109.101 660.401 109.261 660.294 109.438 660.221C109.615 660.147 109.804 660.11 109.996 660.11C110.187 660.11 110.377 660.147 110.553 660.221C110.73 660.294 110.891 660.401 111.026 660.536L123.615 673.125C123.697 673.206 123.808 673.251 123.923 673.251C124.039 673.251 124.149 673.205 124.231 673.123L136.803 660.536C137.076 660.263 137.446 660.11 137.833 660.11H137.834C138.22 660.11 138.591 660.263 138.864 660.536L146.168 667.84C146.624 668.295 147.242 668.551 147.886 668.551C148.53 668.551 149.148 668.295 149.603 667.839C150.058 667.384 150.314 666.766 150.314 666.122C150.314 665.478 150.058 664.86 149.602 664.405L138.096 652.899Z" fill="#666666" fill-opacity="0.15"/>
<path d="M491.674 1055.2C491.928 1055.46 492.269 1055.6 492.623 1055.59C492.977 1055.59 493.316 1055.44 493.566 1055.19C493.816 1054.93 493.958 1054.58 493.961 1054.22C493.965 1053.85 493.828 1053.5 493.583 1053.24L488.408 1047.92L493.583 1042.61C493.836 1042.35 493.978 1041.99 493.978 1041.63C493.978 1041.26 493.836 1040.9 493.583 1040.64C493.33 1040.38 492.987 1040.24 492.628 1040.24C492.27 1040.24 491.927 1040.38 491.674 1040.64L487.85 1044.57V1041.62C487.85 1041.26 487.707 1040.9 487.454 1040.64C487.201 1040.38 486.858 1040.24 486.5 1040.24C486.142 1040.24 485.798 1040.38 485.545 1040.64C485.292 1040.9 485.15 1041.26 485.15 1041.62V1060.08C481.623 1060.53 479.021 1062.69 479.021 1065.38C479.021 1068.4 482.306 1070.76 486.5 1070.76C490.693 1070.76 493.978 1068.4 493.978 1065.38C493.978 1062.7 491.376 1060.53 487.85 1060.08V1051.27L491.674 1055.2ZM491.278 1065.38C491.278 1066.61 489.235 1067.99 486.5 1067.99C483.764 1067.99 481.721 1066.61 481.721 1065.38C481.721 1064.15 483.764 1062.77 486.5 1062.77C489.235 1062.77 491.278 1064.15 491.278 1065.38Z" fill="black" fill-opacity="0.04"/>
<path d="M326.751 605.417H322.501C322.314 605.416 322.129 605.452 321.957 605.525C321.784 605.597 321.627 605.704 321.495 605.84L314.001 613.569L306.506 605.84C306.374 605.704 306.217 605.597 306.045 605.525C305.872 605.452 305.687 605.416 305.501 605.417H301.251C300.875 605.417 300.515 605.57 300.249 605.844C299.983 606.117 299.834 606.488 299.834 606.875C299.834 607.262 299.983 607.633 300.249 607.906C300.515 608.18 300.875 608.333 301.251 608.333H304.92L312.995 616.66C313.127 616.797 313.283 616.906 313.456 616.98C313.628 617.054 313.814 617.092 314.001 617.092C314.188 617.092 314.373 617.054 314.545 616.98C314.718 616.906 314.875 616.797 315.006 616.66L323.081 608.333H326.751C327.126 608.333 327.487 608.18 327.752 607.906C328.018 607.633 328.167 607.262 328.167 606.875C328.167 606.488 328.018 606.117 327.752 605.844C327.487 605.57 327.126 605.417 326.751 605.417Z" fill="black" fill-opacity="0.04"/>
<path d="M312.996 610.827C313.127 610.964 313.284 611.072 313.457 611.146C313.629 611.22 313.815 611.258 314.002 611.258C314.189 611.258 314.374 611.22 314.546 611.146C314.719 611.072 314.876 610.964 315.007 610.827L323.507 602.077C323.639 601.941 323.744 601.78 323.816 601.602C323.887 601.424 323.924 601.234 323.924 601.042C323.924 600.849 323.887 600.659 323.816 600.481C323.744 600.304 323.639 600.142 323.507 600.006C323.375 599.87 323.218 599.762 323.046 599.689C322.873 599.615 322.688 599.577 322.502 599.577C322.315 599.577 322.13 599.615 321.957 599.689C321.785 599.762 321.628 599.87 321.496 600.006L314.002 607.735L306.507 600.006C306.241 599.732 305.879 599.577 305.502 599.577C305.124 599.577 304.762 599.732 304.496 600.006C304.229 600.281 304.079 600.653 304.079 601.042C304.079 601.43 304.229 601.803 304.496 602.077L312.996 610.827Z" fill="black" fill-opacity="0.04"/>
<path d="M314 596.667C314.376 596.667 314.736 596.82 315.002 597.094C315.267 597.367 315.417 597.738 315.417 598.125C315.417 598.512 315.267 598.883 315.002 599.156C314.736 599.43 314.376 599.583 314 599.583C313.624 599.583 313.264 599.737 312.998 600.01C312.733 600.284 312.583 600.655 312.583 601.042C312.583 601.428 312.733 601.799 312.998 602.073C313.264 602.346 313.624 602.5 314 602.5C315.127 602.5 316.208 602.039 317.005 601.219C317.802 600.398 318.25 599.285 318.25 598.125C318.25 596.965 317.802 595.852 317.005 595.031C316.208 594.211 315.127 593.75 314 593.75C313.624 593.75 313.264 593.596 312.998 593.323C312.733 593.049 312.583 592.678 312.583 592.292C312.583 591.905 312.733 591.534 312.998 591.26C313.264 590.987 313.624 590.833 314 590.833C314.376 590.833 314.736 590.68 315.002 590.406C315.267 590.133 315.417 589.762 315.417 589.375C315.417 588.988 315.267 588.617 315.002 588.344C314.736 588.07 314.376 587.917 314 587.917C312.873 587.917 311.792 588.378 310.995 589.198C310.198 590.019 309.75 591.131 309.75 592.292C309.75 593.452 310.198 594.565 310.995 595.385C311.792 596.206 312.873 596.667 314 596.667Z" fill="black" fill-opacity="0.04"/>
<path d="M180.4 977.873H180.399C180.136 978.072 179.835 978.215 179.514 978.294C179.193 978.372 178.86 978.384 178.534 978.329C178.209 978.274 177.898 978.153 177.621 977.973C177.344 977.793 177.107 977.558 176.924 977.283C169.917 966.881 165.848 954.78 165.145 942.258C165.124 941.891 164.963 941.546 164.695 941.294C164.428 941.042 164.075 940.902 163.707 940.901H147.293C146.925 940.902 146.572 941.042 146.305 941.294C146.037 941.546 145.876 941.891 145.855 942.258C145.153 954.78 141.083 966.881 134.076 977.283C133.904 977.548 133.681 977.775 133.42 977.953C133.16 978.131 132.867 978.256 132.558 978.32C132.249 978.385 131.931 978.388 131.621 978.33C131.311 978.272 131.015 978.153 130.751 977.98C130.487 977.807 130.26 977.585 130.082 977.324C129.904 977.064 129.779 976.771 129.714 976.462C129.65 976.153 129.647 975.835 129.705 975.525C129.763 975.215 129.882 974.919 130.055 974.655C136.511 965.082 140.295 953.96 141.017 942.436C141.03 942.239 141.002 942.042 140.936 941.857C140.869 941.671 140.765 941.501 140.631 941.357C140.496 941.213 140.333 941.099 140.152 941.02C139.971 940.942 139.776 940.901 139.579 940.901H133.675C133.038 940.901 132.427 940.648 131.977 940.198C131.527 939.748 131.273 939.137 131.273 938.5C131.273 937.863 131.527 937.252 131.977 936.802C132.427 936.352 133.038 936.099 133.675 936.099H139.636C139.831 936.098 140.024 936.059 140.203 935.982C140.382 935.905 140.544 935.793 140.678 935.652C140.813 935.511 140.917 935.344 140.986 935.162C141.054 934.979 141.084 934.785 141.075 934.59C140.588 923.122 137.094 911.984 130.943 902.292C130.613 901.751 130.51 901.1 130.658 900.483C130.805 899.866 131.191 899.332 131.731 898.998C132.271 898.665 132.921 898.558 133.539 898.702C134.157 898.846 134.693 899.229 135.029 899.767C141.691 910.248 145.453 922.308 145.932 934.718C145.948 935.089 146.106 935.44 146.374 935.697C146.643 935.954 147 936.098 147.372 936.099H163.628C164 936.098 164.357 935.954 164.626 935.697C164.894 935.44 165.053 935.089 165.068 934.718C165.547 922.308 169.309 910.248 175.971 899.767C176.136 899.498 176.353 899.265 176.609 899.08C176.865 898.896 177.155 898.763 177.462 898.69C177.769 898.618 178.087 898.606 178.399 898.657C178.711 898.707 179.009 898.818 179.278 898.984C179.546 899.15 179.779 899.368 179.964 899.624C180.148 899.88 180.28 900.17 180.353 900.477C180.425 900.784 180.436 901.103 180.385 901.414C180.335 901.726 180.223 902.024 180.057 902.292C173.906 911.984 170.412 923.122 169.925 934.59C169.916 934.785 169.946 934.979 170.014 935.162C170.083 935.344 170.187 935.511 170.322 935.652C170.456 935.793 170.618 935.905 170.797 935.982C170.976 936.059 171.169 936.098 171.364 936.099H177.325C177.962 936.099 178.573 936.352 179.023 936.802C179.474 937.252 179.727 937.863 179.727 938.5C179.727 939.137 179.474 939.748 179.023 940.198C178.573 940.648 177.962 940.901 177.325 940.901H171.421C171.224 940.901 171.029 940.942 170.848 941.02C170.667 941.099 170.504 941.213 170.369 941.357C170.235 941.501 170.131 941.671 170.064 941.857C169.998 942.042 169.97 942.239 169.983 942.436C170.705 953.96 174.489 965.082 180.945 974.655C181.28 975.16 181.41 975.774 181.309 976.372C181.208 976.969 180.883 977.506 180.4 977.873Z" fill="#666666" fill-opacity="0.15"/>
<path d="M1178.85 1099C1182.88 1098.99 1186.75 1097.39 1189.6 1094.53C1192.44 1091.68 1194.05 1087.82 1194.05 1083.78C1194.06 1081.23 1193.42 1078.72 1192.19 1076.48C1190.96 1074.25 1189.19 1072.36 1187.03 1070.99C1186.8 1070.85 1186.61 1070.63 1186.5 1070.38C1186.38 1070.13 1186.34 1069.85 1186.38 1069.58C1186.42 1069.3 1186.53 1069.04 1186.72 1068.83C1186.9 1068.63 1187.13 1068.47 1187.4 1068.4C1195.17 1066.21 1203.27 1065.4 1211.32 1066.02C1221.26 1066.83 1230.94 1069.62 1239.79 1074.22C1240.2 1074.45 1240.67 1074.56 1241.14 1074.52C1241.61 1074.49 1242.07 1074.31 1242.44 1074.02C1242.81 1073.73 1243.09 1073.34 1243.24 1072.89C1243.39 1072.44 1243.41 1071.95 1243.28 1071.5C1243.2 1071.19 1243.06 1070.9 1242.87 1070.65C1242.67 1070.41 1242.43 1070.2 1242.15 1070.05C1232.74 1064.98 1222.35 1061.96 1211.69 1061.21C1210 1061.12 1208.34 1061.08 1206.71 1061.08C1192.12 1061.08 1179.96 1064.43 1170.52 1071.07C1168.59 1072.35 1166.98 1074.05 1165.8 1076.03C1164.62 1078.02 1163.89 1080.24 1163.69 1082.55C1163.65 1082.96 1163.64 1083.37 1163.64 1083.78C1163.64 1087.82 1165.24 1091.68 1168.1 1094.54C1170.95 1097.39 1174.82 1098.99 1178.85 1099ZM1173.02 1075.18C1174.74 1074 1176.77 1073.38 1178.85 1073.39C1181.35 1073.39 1183.76 1074.28 1185.66 1075.91C1187.55 1077.54 1188.8 1079.79 1189.17 1082.26C1189.54 1084.73 1189.02 1087.25 1187.68 1089.37C1186.35 1091.48 1184.31 1093.05 1181.92 1093.78C1179.53 1094.51 1176.96 1094.36 1174.67 1093.36C1172.39 1092.36 1170.54 1090.56 1169.46 1088.31C1168.38 1086.06 1168.15 1083.49 1168.8 1081.08C1169.46 1078.67 1170.96 1076.58 1173.02 1075.18ZM1228.15 1082C1224.12 1082.01 1220.25 1083.61 1217.4 1086.47C1214.56 1089.32 1212.95 1093.19 1212.95 1097.22C1212.94 1099.77 1213.58 1102.28 1214.81 1104.52C1216.04 1106.75 1217.81 1108.64 1219.97 1110.01C1220.2 1110.15 1220.39 1110.37 1220.5 1110.62C1220.62 1110.87 1220.66 1111.15 1220.62 1111.42C1220.58 1111.7 1220.47 1111.96 1220.29 1112.17C1220.1 1112.37 1219.87 1112.53 1219.6 1112.6C1211.83 1114.79 1203.73 1115.59 1195.68 1114.98C1185.74 1114.17 1176.06 1111.38 1167.22 1106.78C1166.85 1106.58 1166.44 1106.48 1166.03 1106.48C1165.62 1106.48 1165.23 1106.58 1164.87 1106.77C1164.52 1106.96 1164.22 1107.25 1164.01 1107.59C1163.83 1107.87 1163.71 1108.18 1163.66 1108.51C1163.61 1108.84 1163.63 1109.18 1163.72 1109.5C1163.8 1109.81 1163.94 1110.1 1164.13 1110.35C1164.33 1110.59 1164.57 1110.8 1164.85 1110.95C1174.26 1116.02 1184.65 1119.04 1195.31 1119.79C1212.13 1120.62 1225.98 1117.31 1236.48 1109.93C1238.41 1108.65 1240.02 1106.95 1241.2 1104.97C1242.38 1102.98 1243.11 1100.76 1243.31 1098.45C1243.35 1098.04 1243.37 1097.63 1243.36 1097.22C1243.36 1093.18 1241.76 1089.32 1238.9 1086.46C1236.05 1083.61 1232.18 1082.01 1228.15 1082H1228.15ZM1233.98 1105.82C1232.26 1107 1230.23 1107.62 1228.15 1107.61C1225.65 1107.61 1223.24 1106.72 1221.34 1105.09C1219.45 1103.46 1218.2 1101.21 1217.83 1098.74C1217.46 1096.27 1217.99 1093.75 1219.32 1091.63C1220.65 1089.52 1222.69 1087.95 1225.08 1087.22C1227.47 1086.49 1230.04 1086.64 1232.33 1087.64C1234.61 1088.64 1236.46 1090.44 1237.54 1092.69C1238.62 1094.94 1238.85 1097.51 1238.2 1099.92C1237.54 1102.33 1236.04 1104.42 1233.98 1105.82Z" fill="#666666" fill-opacity="0.15"/>
<path d="M1332.89 775.435C1333.54 775.435 1334.18 775.473 1334.82 775.547C1337.15 775.82 1339.39 776.593 1341.39 777.814C1343.39 779.035 1345.11 780.676 1346.44 782.627C1347.76 784.577 1348.65 786.792 1349.06 789.121C1349.46 791.45 1349.37 793.841 1348.79 796.131L1336.18 832.267C1335.11 835.269 1335.12 838.556 1336.2 841.554C1337.28 844.552 1339.36 847.072 1342.09 848.676C1343.83 849.635 1345.76 850.201 1347.75 850.334C1349.73 850.467 1351.72 850.164 1353.57 849.446C1355.43 848.728 1357.11 847.612 1358.5 846.175C1359.89 844.738 1360.95 843.014 1361.62 841.121C1361.75 840.768 1361.79 840.389 1361.74 840.016C1361.69 839.644 1361.55 839.289 1361.33 838.984C1361.1 838.643 1360.79 838.364 1360.42 838.172C1360.06 837.979 1359.65 837.878 1359.24 837.877C1358.77 837.897 1358.32 838.065 1357.94 838.358C1357.57 838.651 1357.3 839.054 1357.17 839.511C1356.53 841.279 1355.37 842.806 1353.85 843.888C1352.33 844.97 1350.52 845.554 1348.66 845.562C1347.16 845.568 1345.68 845.192 1344.35 844.466C1342.61 843.408 1341.28 841.765 1340.61 839.822C1339.94 837.878 1339.96 835.758 1340.67 833.829C1353.29 797.651 1353.29 797.651 1353.3 797.614C1354.13 794.825 1354.31 791.881 1353.84 789.009C1353.09 783.657 1350.37 778.791 1346.21 775.393C1342.05 771.994 1336.78 770.315 1331.45 770.695C1326.12 771.075 1321.13 773.485 1317.48 777.439C1313.84 781.393 1311.81 786.597 1311.81 792.002C1311.81 793.829 1312.04 795.648 1312.51 797.415L1314.43 802.997C1314.51 803.242 1314.53 803.506 1314.48 803.76C1314.43 804.015 1314.31 804.25 1314.14 804.442C1313.96 804.634 1313.74 804.775 1313.5 804.85C1313.25 804.925 1312.99 804.931 1312.74 804.868C1311.61 804.587 1310.45 804.447 1309.29 804.451C1307.28 804.454 1305.29 804.862 1303.44 805.652C1301.59 806.442 1299.92 807.598 1298.52 809.051C1297.12 810.504 1296.02 812.226 1295.28 814.115C1294.55 816.004 1294.19 818.023 1294.24 820.052C1294.28 821.109 1294.42 822.16 1294.66 823.189C1295.19 825.305 1296.17 827.282 1297.52 828.988C1298.87 830.694 1300.56 832.089 1302.49 833.08C1304.34 834.075 1306.38 834.659 1308.47 834.795C1310.56 834.93 1312.66 834.613 1314.62 833.864C1318.23 832.335 1321.14 829.482 1322.77 825.876C1324.39 822.27 1324.61 818.177 1323.38 814.415L1317.1 796.164C1316.74 794.806 1316.56 793.407 1316.56 792.002C1316.57 789.671 1317.06 787.367 1318 785.24C1318.94 783.113 1320.31 781.209 1322.03 779.653C1325.01 776.932 1328.88 775.428 1332.89 775.435ZM1309.29 830.059C1307.25 830.061 1305.26 829.452 1303.57 828.31C1301.87 827.167 1300.55 825.543 1299.77 823.641C1299 821.74 1298.79 819.648 1299.19 817.629C1299.58 815.61 1300.56 813.756 1302 812.3C1303.44 810.845 1305.28 809.854 1307.27 809.453C1309.27 809.052 1311.34 809.259 1313.22 810.047C1315.1 810.836 1316.7 812.17 1317.83 813.883C1318.96 815.595 1319.56 817.607 1319.56 819.666C1319.56 822.42 1318.47 825.061 1316.55 827.009C1314.62 828.957 1312.01 830.053 1309.29 830.059Z" fill="#666666" fill-opacity="0.15"/>
<path d="M208.339 351.44C208.73 351.44 209.121 351.46 209.511 351.5C212.456 351.89 215.158 353.358 217.104 355.628C219.051 357.898 220.106 360.811 220.07 363.815L220.087 405.835C220.118 408.23 219.743 410.612 218.979 412.879C218.068 414.896 216.764 416.707 215.146 418.204C213.528 419.7 211.629 420.852 209.561 421.59C209.05 421.732 208.598 422.035 208.272 422.457C207.945 422.878 207.761 423.395 207.747 423.93C207.746 424.307 207.832 424.68 207.999 425.017C208.165 425.355 208.407 425.649 208.706 425.875C208.995 426.099 209.331 426.252 209.689 426.322C210.046 426.391 210.415 426.376 210.765 426.276C215.498 424.854 219.55 421.723 222.15 417.477C222.247 417.287 222.385 417.122 222.554 416.993C222.722 416.864 222.917 416.775 223.124 416.732C223.331 416.688 223.545 416.692 223.75 416.743C223.955 416.793 224.147 416.889 224.311 417.024C226.884 419.092 230.081 420.205 233.367 420.179C240.699 420.179 246.665 414.94 246.665 408.499C246.665 402.069 240.674 396.837 233.31 396.837C231.082 396.823 228.882 397.33 226.88 398.318C226.663 398.428 226.422 398.48 226.179 398.469C225.936 398.458 225.701 398.384 225.494 398.255C225.287 398.126 225.117 397.946 224.999 397.731C224.881 397.516 224.819 397.275 224.819 397.029V363.982C224.881 359.704 223.358 355.559 220.551 352.359C217.744 349.16 213.855 347.138 209.648 346.691C206.902 346.468 204.145 346.945 201.629 348.08C199.114 349.215 196.92 350.97 195.249 353.185C195.11 353.351 194.938 353.485 194.743 353.576C194.548 353.668 194.336 353.715 194.121 353.715C193.906 353.715 193.694 353.668 193.499 353.576C193.305 353.485 193.132 353.351 192.993 353.185C190.793 350.301 187.732 348.212 184.263 347.228C183.918 347.13 183.556 347.114 183.204 347.183C182.852 347.252 182.521 347.402 182.237 347.623C181.956 347.838 181.728 348.116 181.572 348.435C181.416 348.754 181.335 349.106 181.336 349.462C181.328 350.015 181.503 350.556 181.833 350.997C182.163 351.439 182.629 351.757 183.158 351.9C185.606 352.621 187.759 354.124 189.293 356.184C190.828 358.245 191.662 360.752 191.671 363.332V398.298C191.672 398.954 191.931 399.582 192.391 400.046C192.85 400.509 193.472 400.769 194.121 400.769C194.77 400.769 195.392 400.509 195.852 400.046C196.311 399.582 196.57 398.954 196.572 398.298V363.332C196.573 360.177 197.814 357.152 200.02 354.922C202.227 352.692 205.219 351.439 208.338 351.44H208.339ZM233.367 415.376C228.654 415.376 224.819 412.291 224.819 408.499C224.875 407.437 225.187 406.404 225.726 405.49C226.266 404.576 227.017 403.809 227.915 403.254C229.513 402.182 231.392 401.619 233.31 401.64C238.001 401.64 241.916 404.781 241.916 408.499C241.916 412.291 238.081 415.376 233.367 415.376Z" fill="#666666" fill-opacity="0.15"/>
<path d="M301.499 639.887C297.889 639.887 294.426 641.322 291.874 643.875C289.322 646.427 287.887 649.889 287.887 653.5C287.887 657.11 289.321 660.573 291.874 663.125C294.426 665.678 297.889 667.112 301.499 667.112C305.11 667.112 308.572 665.678 311.125 663.125C313.677 660.573 315.112 657.11 315.112 653.5C315.108 649.89 313.672 646.431 311.119 643.88C308.568 641.327 305.108 639.891 301.499 639.887ZM312.564 652.262H302.737V642.435C305.245 642.72 307.584 643.846 309.368 645.632C311.153 647.416 312.28 649.754 312.565 652.263L312.564 652.262ZM300.262 642.435V652.262H290.434C290.719 649.754 291.845 647.415 293.631 645.631C295.415 643.846 297.753 642.719 300.262 642.435L300.262 642.435ZM290.434 654.737H300.262V664.565C297.753 664.28 295.415 663.154 293.631 661.368C291.845 659.584 290.719 657.246 290.434 654.737L290.434 654.737ZM302.737 664.565V654.737H312.564C312.28 657.246 311.153 659.584 309.368 661.368C307.584 663.154 305.245 664.28 302.737 664.565L302.737 664.565Z" fill="black" fill-opacity="0.04"/>
<path d="M908.59 1248.69C908.236 1248.69 907.886 1248.77 907.571 1248.94C907.255 1249.1 906.984 1249.35 906.78 1249.64C906.567 1249.92 906.418 1250.25 906.341 1250.6C906.265 1250.95 906.264 1251.31 906.338 1251.66C906.412 1252.01 906.56 1252.33 906.771 1252.62C906.982 1252.9 907.251 1253.14 907.559 1253.3C911.099 1255.21 914.853 1256.67 918.739 1257.65C919.045 1257.74 919.317 1257.92 919.511 1258.17C919.705 1258.43 919.81 1258.74 919.81 1259.07V1318.98C919.81 1319.3 919.704 1319.61 919.511 1319.87C919.317 1320.13 919.045 1320.31 918.739 1320.39C914.853 1321.37 911.099 1322.83 907.56 1324.74C907.256 1324.91 906.99 1325.14 906.78 1325.42C906.57 1325.7 906.42 1326.02 906.34 1326.36C906.263 1326.7 906.256 1327.04 906.32 1327.38C906.385 1327.71 906.519 1328.03 906.714 1328.31C907.063 1328.8 907.577 1329.14 908.157 1329.27C908.737 1329.39 909.343 1329.29 909.856 1328.99C917.975 1324.94 926.922 1322.92 935.955 1323.1C944.988 1322.92 953.935 1324.94 962.054 1328.99C962.568 1329.29 963.173 1329.39 963.753 1329.27C964.333 1329.14 964.847 1328.8 965.195 1328.31C965.39 1328.03 965.525 1327.71 965.589 1327.38C965.654 1327.04 965.647 1326.7 965.569 1326.36C965.49 1326.02 965.34 1325.7 965.13 1325.42C964.92 1325.14 964.654 1324.91 964.351 1324.74C960.811 1322.83 957.057 1321.37 953.171 1320.39C952.865 1320.31 952.593 1320.13 952.399 1319.87C952.205 1319.61 952.1 1319.3 952.1 1318.98V1259.07C952.1 1258.74 952.205 1258.43 952.399 1258.17C952.593 1257.92 952.865 1257.74 953.171 1257.65C957.092 1256.67 960.88 1255.19 964.447 1253.25C964.739 1253.09 964.995 1252.87 965.197 1252.6C965.398 1252.33 965.542 1252.02 965.618 1251.69C965.692 1251.37 965.698 1251.04 965.637 1250.72C965.575 1250.4 965.447 1250.1 965.261 1249.83C964.92 1249.31 964.4 1248.95 963.806 1248.8C963.212 1248.66 962.586 1248.75 962.054 1249.05C953.935 1253.11 944.988 1255.13 935.955 1254.94C926.881 1255.13 917.895 1253.09 909.751 1249C909.395 1248.8 908.996 1248.69 908.59 1248.69ZM945.927 1318.93C945.864 1318.93 945.8 1318.92 945.738 1318.92C939.245 1318.02 932.665 1318.02 926.172 1318.92C925.971 1318.94 925.766 1318.93 925.572 1318.87C925.377 1318.81 925.198 1318.71 925.045 1318.57C924.892 1318.43 924.77 1318.26 924.686 1318.07C924.602 1317.88 924.558 1317.68 924.558 1317.47V1260.57C924.558 1260.36 924.602 1260.16 924.686 1259.97C924.77 1259.78 924.892 1259.61 925.045 1259.47C925.198 1259.34 925.377 1259.24 925.572 1259.18C925.766 1259.12 925.971 1259.1 926.172 1259.13C932.665 1260.02 939.245 1260.02 945.738 1259.13C945.939 1259.1 946.143 1259.12 946.338 1259.18C946.532 1259.24 946.712 1259.34 946.865 1259.47C947.018 1259.61 947.14 1259.78 947.224 1259.97C947.308 1260.16 947.351 1260.36 947.351 1260.57V1317.47C947.351 1317.86 947.201 1318.23 946.934 1318.5C946.667 1318.78 946.305 1318.93 945.927 1318.93L945.927 1318.93Z" fill="#666666" fill-opacity="0.15"/>
<path d="M636.259 1244L725.083 716.454M725.083 716.454L808.667 196M725.083 716.454L1127.27 378.94M725.083 716.454L1214 913.254M725.083 716.454L1111.84 1082.96M725.083 716.454L319.824 1062.6M725.083 716.454L336.478 357.353M725.083 716.454L231 522.095" stroke="#888888" stroke-opacity="0.2" stroke-width="2" stroke-linecap="round" stroke-linejoin="round"/>
<path d="M367.375 589.792C367.375 589.383 367.213 588.991 366.923 588.702C366.634 588.412 366.242 588.25 365.833 588.25C365.424 588.25 365.032 588.412 364.743 588.702C364.454 588.991 364.292 589.383 364.292 589.792C364.292 592.654 363.155 595.399 361.131 597.423C359.107 599.446 356.362 600.583 353.5 600.583C350.638 600.583 347.893 599.446 345.869 597.423C343.845 595.399 342.708 592.654 342.708 589.792C342.708 589.383 342.546 588.991 342.257 588.702C341.968 588.412 341.576 588.25 341.167 588.25C340.758 588.25 340.366 588.412 340.077 588.702C339.787 588.991 339.625 589.383 339.625 589.792C339.627 593.203 340.885 596.495 343.16 599.038C345.436 601.58 348.568 603.195 351.958 603.574V605.208H350.417C350.008 605.208 349.616 605.371 349.327 605.66C349.037 605.949 348.875 606.341 348.875 606.75C348.875 607.159 349.037 607.551 349.327 607.84C349.616 608.129 350.008 608.292 350.417 608.292H351.958V611.375C351.958 611.784 352.121 612.176 352.41 612.465C352.699 612.754 353.091 612.917 353.5 612.917C353.909 612.917 354.301 612.754 354.59 612.465C354.879 612.176 355.042 611.784 355.042 611.375V608.292H356.583C356.992 608.292 357.384 608.129 357.673 607.84C357.963 607.551 358.125 607.159 358.125 606.75C358.125 606.341 357.963 605.949 357.673 605.66C357.384 605.371 356.992 605.208 356.583 605.208H355.042V603.574C358.432 603.195 361.564 601.58 363.84 599.038C366.115 596.495 367.373 593.203 367.375 589.792Z" fill="black" fill-opacity="0.04"/>
<path d="M353.5 597.5C355.025 597.5 356.515 597.048 357.783 596.201C359.05 595.354 360.038 594.15 360.622 592.742C361.205 591.333 361.358 589.783 361.061 588.288C360.763 586.793 360.029 585.419 358.951 584.341C357.873 583.263 356.499 582.529 355.004 582.231C353.509 581.934 351.959 582.087 350.55 582.67C349.142 583.254 347.938 584.242 347.091 585.509C346.244 586.777 345.792 588.267 345.792 589.792C345.792 591.836 346.604 593.797 348.05 595.242C349.495 596.688 351.456 597.5 353.5 597.5ZM353.5 585.167C354.415 585.167 355.309 585.438 356.07 585.946C356.83 586.454 357.423 587.177 357.773 588.022C358.123 588.867 358.215 589.797 358.036 590.694C357.858 591.591 357.418 592.415 356.771 593.062C356.124 593.709 355.3 594.149 354.403 594.328C353.505 594.506 352.576 594.415 351.73 594.065C350.885 593.715 350.163 593.122 349.655 592.361C349.147 591.601 348.875 590.706 348.875 589.792C348.875 588.565 349.363 587.389 350.23 586.521C351.097 585.654 352.274 585.167 353.5 585.167Z" fill="black" fill-opacity="0.04"/>
<path d="M457.5 1019.42C454.121 1019.42 450.819 1020.42 448.009 1022.3C445.2 1024.17 443.01 1026.84 441.717 1029.96C440.424 1033.08 440.086 1036.52 440.745 1039.83C441.404 1043.15 443.031 1046.19 445.42 1048.58C447.81 1050.97 450.854 1052.6 454.167 1053.26C457.481 1053.91 460.916 1053.58 464.038 1052.28C467.159 1050.99 469.827 1048.8 471.704 1045.99C473.582 1043.18 474.584 1039.88 474.584 1036.5C474.584 1034.26 474.142 1032.04 473.283 1029.96C472.425 1027.89 471.166 1026.01 469.58 1024.42C467.994 1022.83 466.11 1021.58 464.038 1020.72C461.965 1019.86 459.744 1019.42 457.5 1019.42ZM457.5 1050.17C454.797 1050.17 452.155 1049.37 449.907 1047.86C447.66 1046.36 445.908 1044.23 444.874 1041.73C443.839 1039.23 443.569 1036.48 444.096 1033.83C444.623 1031.18 445.925 1028.75 447.836 1026.84C449.748 1024.92 452.183 1023.62 454.834 1023.1C457.485 1022.57 460.233 1022.84 462.73 1023.87C465.227 1024.91 467.362 1026.66 468.864 1028.91C470.365 1031.15 471.167 1033.8 471.167 1036.5C471.167 1040.12 469.727 1043.6 467.164 1046.16C464.601 1048.73 461.125 1050.17 457.5 1050.17Z" fill="black" fill-opacity="0.04"/>
<path d="M457.5 1039.92C459.387 1039.92 460.917 1038.39 460.917 1036.5C460.917 1034.61 459.387 1033.08 457.5 1033.08C455.613 1033.08 454.084 1034.61 454.084 1036.5C454.084 1038.39 455.613 1039.92 457.5 1039.92Z" fill="black" fill-opacity="0.04"/>
<path d="M1096 718C1096 922.896 929.675 1089 724.5 1089C519.325 1089 353 922.896 353 718C353 513.104 519.325 347 724.5 347C929.675 347 1096 513.104 1096 718Z" stroke="#888888" stroke-opacity="0.2" stroke-width="2"/>
<g clip-path="url(#clip0_416_1143)">
<path d="M511.029 1064.55C510.687 1064.85 510.467 1065.27 510.409 1065.72C510.35 1066.17 510.458 1066.63 510.711 1067C510.95 1067.38 511.316 1067.66 511.743 1067.79C512.169 1067.92 512.628 1067.89 513.037 1067.72C514.767 1066.98 516.664 1066.74 518.523 1067.01C520.382 1067.28 522.132 1068.05 523.584 1069.24C525.036 1070.44 526.134 1072 526.759 1073.77C527.385 1075.55 527.515 1077.45 527.134 1079.29C526.753 1081.13 525.876 1082.83 524.599 1084.21C523.321 1085.59 521.692 1086.59 519.886 1087.1C518.08 1087.62 516.168 1087.63 514.355 1087.14C512.542 1086.65 510.898 1085.67 509.602 1084.31C509.329 1083.89 508.903 1083.6 508.416 1083.5C507.93 1083.4 507.424 1083.5 507.009 1083.77C506.594 1084.04 506.304 1084.47 506.203 1084.96C506.103 1085.44 506.199 1085.95 506.472 1086.36C506.873 1087.2 507.334 1088.01 507.852 1088.77C509.886 1091.87 512.791 1094.29 516.201 1095.74C519.611 1097.18 523.372 1097.59 527.01 1096.89C530.647 1096.2 533.997 1094.44 536.636 1091.85C539.275 1089.25 541.084 1085.93 541.835 1082.3C542.585 1078.68 542.244 1074.91 540.854 1071.47C539.464 1068.04 537.087 1065.1 534.024 1063.02C530.961 1060.93 527.35 1059.81 523.647 1059.78C519.944 1059.75 516.316 1060.81 513.221 1062.85C512.449 1063.36 511.717 1063.93 511.029 1064.55ZM536.019 1070.28C537.908 1073.15 538.754 1076.58 538.416 1079.99C538.078 1083.41 536.576 1086.61 534.161 1089.05C531.747 1091.49 528.567 1093.03 525.154 1093.4C521.741 1093.78 518.302 1092.97 515.413 1091.11C518.91 1091.54 522.438 1090.64 525.3 1088.58C528.161 1086.53 530.145 1083.47 530.859 1080.03C531.574 1076.58 530.965 1072.98 529.155 1069.96C527.345 1066.94 524.466 1064.71 521.088 1063.71C523.945 1063.24 526.876 1063.62 529.526 1064.78C532.176 1065.95 534.431 1067.86 536.019 1070.28Z" fill="black" fill-opacity="0.04"/>
</g>
<path d="M576.149 1277.64C575.805 1277.63 575.464 1277.7 575.15 1277.85C574.837 1277.99 574.557 1278.2 574.332 1278.46C574.102 1278.72 573.932 1279.04 573.834 1279.38C573.735 1279.71 573.71 1280.07 573.761 1280.42C574.524 1285.87 576.774 1291 580.263 1295.25C583.753 1299.5 588.347 1302.71 593.54 1304.52C593.816 1304.62 594.056 1304.79 594.228 1305.03C594.4 1305.27 594.496 1305.55 594.503 1305.84C594.51 1306.13 594.428 1306.42 594.268 1306.67C594.108 1306.91 593.878 1307.1 593.607 1307.21C588.802 1309.16 584.693 1312.51 581.811 1316.83C578.93 1321.14 577.408 1326.21 577.442 1331.4C577.535 1338.04 580.134 1344.41 584.719 1349.22C589.304 1354.03 595.537 1356.92 602.169 1357.33C608.31 1357.65 614.363 1355.78 619.258 1352.06C624.153 1348.33 627.574 1343 628.917 1337C630.259 1331 629.435 1324.72 626.592 1319.27C623.749 1313.82 619.069 1309.55 613.38 1307.21C613.109 1307.1 612.879 1306.91 612.719 1306.67C612.559 1306.42 612.477 1306.14 612.484 1305.84C612.491 1305.55 612.587 1305.27 612.759 1305.03C612.931 1304.79 613.171 1304.62 613.446 1304.52C618.636 1302.67 623.221 1299.43 626.709 1295.17C630.197 1290.9 632.455 1285.77 633.24 1280.31C633.289 1279.97 633.264 1279.63 633.168 1279.3C633.072 1278.97 632.906 1278.67 632.683 1278.41C632.473 1278.16 632.213 1277.97 631.921 1277.84C631.629 1277.7 631.311 1277.63 630.99 1277.64C630.404 1277.6 629.827 1277.79 629.366 1278.15C628.905 1278.51 628.593 1279.03 628.488 1279.61C627.661 1285.65 624.674 1291.19 620.079 1295.2C615.484 1299.21 609.591 1301.42 603.493 1301.42C597.394 1301.42 591.502 1299.21 586.907 1295.2C582.312 1291.19 579.325 1285.65 578.499 1279.61C578.445 1279.08 578.198 1278.58 577.804 1278.22C577.411 1277.85 576.898 1277.65 576.362 1277.64L576.149 1277.64ZM603.493 1352.56C599.291 1352.56 595.183 1351.32 591.688 1348.98C588.194 1346.65 585.471 1343.33 583.862 1339.45C582.254 1335.56 581.833 1331.29 582.653 1327.17C583.473 1323.05 585.497 1319.26 588.468 1316.29C591.44 1313.32 595.226 1311.29 599.348 1310.47C603.47 1309.65 607.742 1310.08 611.625 1311.68C615.508 1313.29 618.826 1316.02 621.161 1319.51C623.496 1323 624.742 1327.11 624.742 1331.31C624.736 1336.95 622.495 1342.35 618.511 1346.33C614.528 1350.32 609.127 1352.56 603.493 1352.56Z" fill="#666666" fill-opacity="0.15"/>
<path d="M1323.17 552.531L1323.16 552.526C1322.41 552.217 1321.65 551.867 1320.85 551.436C1320.54 551.285 1320.36 551.189 1320.18 551.082C1319.97 550.952 1319.8 550.769 1319.68 550.55C1319.56 550.332 1319.5 550.085 1319.5 549.833C1319.5 549.582 1319.56 549.335 1319.68 549.117C1319.8 548.898 1319.98 548.716 1320.19 548.587C1321.84 547.56 1323.23 546.155 1324.26 544.484C1325.69 542.086 1326.44 539.325 1326.43 536.514C1326.43 529.018 1321.25 522.92 1314.88 522.92C1313.24 522.92 1311.63 523.329 1310.19 524.112C1309.97 524.229 1309.73 524.286 1309.48 524.278C1309.24 524.27 1309 524.198 1308.79 524.068C1308.58 523.938 1308.41 523.756 1308.29 523.537C1308.17 523.319 1308.1 523.073 1308.1 522.822V499.965C1308.08 496.882 1306.86 493.934 1304.72 491.765C1303.77 490.77 1302.63 489.978 1301.38 489.435C1300.13 488.893 1298.78 488.61 1297.42 488.605C1294.72 488.611 1292.14 489.683 1290.2 491.595C1289.93 491.857 1289.58 492.003 1289.21 492.003C1288.84 492.003 1288.49 491.856 1288.22 491.594C1286.74 490.173 1284.9 489.211 1282.91 488.821C1280.91 488.43 1278.85 488.628 1276.96 489.391C1276.76 489.477 1276.53 489.512 1276.31 489.493C1276.09 489.474 1275.87 489.402 1275.68 489.283C1275.49 489.163 1275.33 488.999 1275.22 488.805C1275.1 488.61 1275.03 488.39 1275.01 488.163C1274.8 485.659 1273.9 483.266 1272.42 481.263C1270.94 479.259 1268.93 477.726 1266.63 476.842C1266.27 476.715 1265.89 476.68 1265.52 476.74C1265.15 476.799 1264.79 476.952 1264.49 477.183C1264.19 477.415 1263.95 477.718 1263.79 478.067C1263.63 478.417 1263.56 478.801 1263.57 479.186C1263.59 479.698 1263.76 480.193 1264.05 480.608C1264.34 481.023 1264.75 481.338 1265.22 481.513C1266.73 482.135 1268.02 483.205 1268.92 484.583C1269.82 485.961 1270.3 487.585 1270.3 489.245V533.931C1270.3 534.574 1270.55 535.191 1270.99 535.646C1271.44 536.102 1272.04 536.358 1272.67 536.358C1272.98 536.362 1273.29 536.301 1273.58 536.18C1273.87 536.059 1274.13 535.879 1274.35 535.653C1274.57 535.427 1274.74 535.159 1274.86 534.863C1274.98 534.568 1275.04 534.251 1275.04 533.931V499.712C1275.02 498.185 1275.55 496.703 1276.53 495.553C1277.52 494.403 1278.88 493.666 1280.37 493.484C1281.18 493.4 1282 493.493 1282.77 493.758C1283.55 494.022 1284.26 494.452 1284.86 495.019C1285.46 495.582 1285.95 496.268 1286.28 497.033C1286.61 497.798 1286.78 498.624 1286.78 499.46V533.931C1286.79 534.578 1287.05 535.196 1287.5 535.65C1287.95 536.104 1288.56 536.359 1289.19 536.359C1289.82 536.359 1290.43 536.104 1290.88 535.65C1291.33 535.196 1291.59 534.578 1291.6 533.931V499.732C1291.58 498.215 1292.11 496.743 1293.08 495.593C1294.05 494.443 1295.39 493.694 1296.86 493.487C1297.68 493.401 1298.51 493.491 1299.29 493.751C1300.07 494.012 1300.79 494.437 1301.4 495C1302.02 495.563 1302.51 496.25 1302.84 497.019C1303.18 497.787 1303.35 498.619 1303.36 499.46V536.571C1303.33 539.346 1304.07 542.07 1305.5 544.427C1305.58 544.521 1305.64 544.623 1305.7 544.731C1306.69 546.341 1307.9 547.804 1309.28 549.08C1309.45 549.238 1309.57 549.436 1309.65 549.655C1309.73 549.874 1309.75 550.109 1309.72 550.34C1309.69 550.571 1309.61 550.791 1309.48 550.982C1309.35 551.173 1309.17 551.329 1308.97 551.437C1308.15 551.878 1307.3 552.271 1306.43 552.613C1305.96 552.795 1305.55 553.132 1305.29 553.57C1305.02 554.009 1304.9 554.526 1304.95 555.041C1304.97 555.422 1305.09 555.791 1305.28 556.118C1305.47 556.445 1305.73 556.722 1306.05 556.926C1306.34 557.123 1306.68 557.245 1307.03 557.285C1307.38 557.324 1307.73 557.278 1308.06 557.152C1310.18 556.31 1312.22 555.271 1314.16 554.047C1314.38 553.907 1314.64 553.833 1314.9 553.835C1315.17 553.836 1315.42 553.911 1315.65 554.053C1317.58 555.285 1319.63 556.322 1321.76 557.151C1322.11 557.271 1322.49 557.304 1322.86 557.247C1323.23 557.19 1323.58 557.044 1323.88 556.822C1324.18 556.6 1324.43 556.307 1324.6 555.968C1324.78 555.629 1324.87 555.253 1324.87 554.872C1324.84 554.353 1324.67 553.854 1324.37 553.438C1324.07 553.021 1323.65 552.706 1323.17 552.531ZM1314.88 545.252C1313.92 545.22 1312.97 544.959 1312.13 544.49C1311.28 544.022 1310.55 543.358 1310 542.552C1309.88 542.407 1309.78 542.252 1309.7 542.087C1308.64 540.454 1308.08 538.532 1308.1 536.571C1308.1 531.776 1311.21 527.774 1314.88 527.774C1318.63 527.774 1321.68 531.695 1321.68 536.513C1321.68 541.332 1318.63 545.253 1314.88 545.253V545.252Z" fill="#666666" fill-opacity="0.15"/>
<path d="M1170.31 280.654C1170.31 281.298 1170.06 281.915 1169.6 282.37C1169.15 282.826 1168.53 283.082 1167.88 283.082H1092.12C1091.8 283.083 1091.48 283.021 1091.18 282.9C1090.89 282.778 1090.62 282.599 1090.39 282.374C1090.17 282.148 1089.99 281.88 1089.87 281.585C1089.74 281.29 1089.68 280.973 1089.68 280.654C1089.68 280.335 1089.74 280.018 1089.87 279.723C1089.99 279.428 1090.17 279.16 1090.39 278.934C1090.62 278.709 1090.89 278.53 1091.18 278.408C1091.48 278.287 1091.8 278.225 1092.12 278.226H1167.88C1168.53 278.226 1169.15 278.482 1169.6 278.937C1170.06 279.393 1170.31 280.01 1170.31 280.654ZM1092.12 267.54H1118.34C1118.99 267.54 1119.61 267.284 1120.06 266.829C1120.52 266.374 1120.77 265.756 1120.77 265.112C1120.77 264.468 1120.52 263.85 1120.06 263.395C1119.61 262.939 1118.99 262.683 1118.34 262.683H1115.66C1115.47 262.683 1115.28 262.645 1115.1 262.569C1114.92 262.494 1114.76 262.384 1114.62 262.245C1111.67 259.22 1109.68 255.391 1108.89 251.237C1108.1 247.084 1108.56 242.791 1110.2 238.896C1111.84 235.001 1114.6 231.676 1118.12 229.339C1121.64 227.001 1125.77 225.754 1130 225.754C1134.23 225.754 1138.36 227.001 1141.88 229.339C1145.4 231.676 1148.16 235.001 1149.8 238.896C1151.44 242.791 1151.9 247.084 1151.11 251.237C1150.32 255.391 1148.33 259.22 1145.38 262.245C1145.24 262.384 1145.08 262.494 1144.9 262.569C1144.72 262.645 1144.53 262.683 1144.34 262.683H1141.66C1141.01 262.683 1140.39 262.939 1139.94 263.395C1139.48 263.85 1139.23 264.468 1139.23 265.112C1139.23 265.756 1139.48 266.374 1139.94 266.829C1140.39 267.284 1141.01 267.54 1141.66 267.54H1167.88C1168.22 267.541 1168.55 267.472 1168.86 267.338C1169.17 267.204 1169.44 267.008 1169.67 266.761C1169.9 266.515 1170.07 266.224 1170.18 265.908C1170.29 265.591 1170.33 265.254 1170.31 264.92C1170.23 264.292 1169.92 263.716 1169.44 263.303C1168.96 262.889 1168.35 262.669 1167.71 262.683H1154.03C1153.78 262.683 1153.52 262.615 1153.3 262.487C1153.08 262.358 1152.9 262.173 1152.77 261.951C1152.64 261.728 1152.57 261.476 1152.58 261.22C1152.58 260.963 1152.64 260.712 1152.77 260.49C1155.13 256.448 1156.37 251.847 1156.34 247.167C1156.25 240.449 1153.63 234.014 1148.99 229.152C1144.36 224.289 1138.05 221.36 1131.35 220.951C1126.61 220.712 1121.9 221.756 1117.7 223.972C1113.51 226.188 1109.99 229.495 1107.52 233.544C1105.05 237.593 1103.71 242.234 1103.66 246.977C1103.6 251.72 1104.83 256.39 1107.21 260.495C1107.34 260.716 1107.41 260.968 1107.41 261.224C1107.41 261.48 1107.34 261.732 1107.21 261.954C1107.08 262.176 1106.9 262.36 1106.68 262.488C1106.46 262.616 1106.2 262.684 1105.95 262.683H1092.12C1091.47 262.69 1090.86 262.948 1090.41 263.402C1089.95 263.856 1089.69 264.47 1089.69 265.112C1089.69 265.756 1089.94 266.373 1090.4 266.828C1090.85 267.284 1091.47 267.54 1092.12 267.54Z" fill="#666666" fill-opacity="0.15"/>
<path d="M435.55 160.015C435.069 160.015 434.6 160.156 434.2 160.42C433.8 160.683 433.489 161.059 433.305 161.498C433.121 161.937 433.073 162.42 433.167 162.886C433.261 163.352 433.492 163.78 433.832 164.116L443.363 173.541C443.499 173.675 443.606 173.833 443.679 174.008C443.753 174.183 443.79 174.371 443.79 174.56C443.79 174.749 443.753 174.937 443.679 175.111C443.606 175.286 443.499 175.445 443.363 175.579L416.516 202.133C416.076 202.538 415.793 203.082 415.717 203.671C415.641 204.261 415.777 204.858 416.101 205.359C416.305 205.645 416.57 205.883 416.878 206.057C417.185 206.232 417.527 206.337 417.88 206.367C418.233 206.397 418.588 206.351 418.921 206.231C419.254 206.111 419.556 205.92 419.807 205.673L446.8 178.977C447.079 178.717 447.448 178.572 447.831 178.572C448.214 178.572 448.583 178.717 448.861 178.977L458.396 188.407C458.852 188.857 459.47 189.11 460.114 189.11C460.758 189.11 461.376 188.857 461.832 188.406C462.287 187.956 462.543 187.345 462.543 186.707C462.543 186.07 462.287 185.459 461.831 185.009L452.297 175.579C452.161 175.445 452.054 175.286 451.981 175.111C451.907 174.937 451.87 174.749 451.87 174.56C451.87 174.371 451.907 174.183 451.981 174.008C452.054 173.833 452.161 173.675 452.297 173.541L488.95 137.288C489.154 137.087 489.413 136.949 489.696 136.894C489.979 136.838 490.272 136.866 490.538 136.975C490.804 137.084 491.032 137.269 491.192 137.506C491.352 137.743 491.438 138.021 491.438 138.306L491.444 150.924C491.422 151.519 491.611 152.103 491.98 152.574C492.348 153.045 492.871 153.373 493.459 153.502C493.809 153.562 494.168 153.545 494.511 153.454C494.854 153.362 495.173 153.197 495.444 152.971C495.716 152.745 495.934 152.463 496.084 152.144C496.234 151.826 496.312 151.479 496.312 151.127L496.302 126.974C496.302 126.881 496.265 126.792 496.199 126.725C496.132 126.659 496.042 126.622 495.947 126.622H471.782C471.181 126.599 470.591 126.786 470.115 127.15C469.639 127.514 469.308 128.031 469.178 128.612C469.117 128.958 469.133 129.312 469.226 129.651C469.318 129.99 469.484 130.305 469.713 130.573C469.941 130.842 470.226 131.058 470.548 131.206C470.87 131.354 471.22 131.431 471.575 131.431H484.482C484.771 131.43 485.053 131.515 485.293 131.673C485.532 131.832 485.719 132.057 485.83 132.32C485.94 132.584 485.969 132.874 485.913 133.153C485.856 133.433 485.717 133.69 485.513 133.891L448.86 170.143C448.581 170.403 448.212 170.548 447.829 170.548C447.446 170.548 447.077 170.403 446.798 170.143L437.267 160.718C437.042 160.494 436.775 160.317 436.48 160.196C436.185 160.076 435.869 160.014 435.55 160.015Z" fill="#666666" fill-opacity="0.15"/>
<path d="M828.479 102.234C830.04 102.23 831.538 102.853 832.644 103.966C833.751 105.079 834.375 106.591 834.38 108.17V137.081C834.384 140.795 835.844 144.356 838.441 146.982C841.038 149.609 844.559 151.086 848.231 151.09H861.011C861.293 151.09 861.568 151.175 861.802 151.333C862.036 151.491 862.218 151.716 862.326 151.979C862.434 152.242 862.462 152.531 862.407 152.81C862.353 153.09 862.217 153.346 862.018 153.548L854.406 161.256C853.962 161.707 853.712 162.319 853.713 162.956C853.713 163.593 853.963 164.205 854.408 164.656C854.862 165.093 855.464 165.336 856.09 165.336C856.716 165.336 857.319 165.093 857.772 164.656L873.298 148.938C873.363 148.872 873.4 148.783 873.4 148.69C873.4 148.597 873.363 148.508 873.298 148.442L857.803 132.77C857.358 132.32 856.754 132.066 856.123 132.066C855.493 132.066 854.889 132.32 854.443 132.77C853.998 133.221 853.748 133.832 853.748 134.469C853.748 135.107 853.998 135.718 854.443 136.168L862.018 143.83C862.218 144.032 862.354 144.288 862.409 144.568C862.464 144.847 862.436 145.137 862.328 145.4C862.22 145.663 862.037 145.888 861.803 146.047C861.569 146.205 861.293 146.289 861.011 146.289H848.165C845.768 146.286 843.471 145.322 841.776 143.608C840.082 141.895 839.129 139.571 839.127 137.147V108.669C839.116 107.154 838.811 105.656 838.227 104.261C837.644 102.865 836.795 101.599 835.728 100.536C833.819 98.5738 831.219 97.4584 828.498 97.4349C828.461 97.4349 828.424 97.4349 828.388 97.4358C825.713 97.4564 823.148 98.5147 821.221 100.392C820.956 100.651 820.602 100.796 820.233 100.796C819.864 100.796 819.51 100.651 819.245 100.392C817.767 98.9853 815.923 98.0331 813.929 97.6471C811.935 97.2612 809.874 97.4576 807.987 98.2132C807.78 98.2979 807.557 98.3322 807.334 98.3134C807.112 98.2946 806.897 98.2232 806.707 98.1049C806.517 97.9866 806.357 97.8248 806.24 97.6325C806.123 97.4402 806.053 97.2228 806.034 96.9979C805.825 94.5219 804.927 92.1564 803.444 90.1753C801.96 88.1942 799.953 86.6785 797.653 85.8037C797.297 85.6781 796.915 85.6431 796.543 85.7016C796.17 85.7602 795.817 85.9106 795.516 86.1395C795.214 86.3684 794.972 86.6688 794.813 87.0143C794.653 87.3598 794.579 87.7398 794.599 88.1207C794.615 88.6272 794.781 89.1172 795.075 89.5274C795.369 89.9376 795.778 90.2492 796.249 90.4218C797.753 91.0378 799.041 92.0955 799.945 93.4586C800.849 94.8217 801.328 96.4275 801.321 98.0688V142.088C801.306 142.714 801.522 143.322 801.927 143.796C802.331 144.27 802.895 144.575 803.509 144.652C803.835 144.678 804.164 144.635 804.473 144.527C804.782 144.418 805.066 144.246 805.307 144.021C805.547 143.796 805.739 143.523 805.87 143.219C806.001 142.916 806.068 142.588 806.068 142.257V108.432C806.046 106.923 806.576 105.459 807.556 104.321C808.535 103.182 809.896 102.45 811.377 102.263C812.191 102.18 813.013 102.272 813.789 102.533C814.566 102.793 815.279 103.216 815.883 103.775C816.487 104.332 816.97 105.011 817.3 105.768C817.631 106.524 817.801 107.342 817.802 108.17V142.257C817.812 142.897 818.07 143.508 818.521 143.957C818.973 144.406 819.58 144.658 820.214 144.658C820.847 144.658 821.454 144.406 821.906 143.957C822.357 143.508 822.615 142.897 822.625 142.257V108.439C822.608 106.938 823.133 105.482 824.102 104.345C825.071 103.208 826.417 102.468 827.888 102.264C828.084 102.244 828.282 102.234 828.479 102.234Z" fill="#666666" fill-opacity="0.15"/>
<path d="M518.125 165.684C514.209 165.684 510.653 168.074 508.215 171.818C506.699 174.145 505.631 176.91 505.037 179.882L501.799 168.225C501.569 167.402 500.803 166.826 499.923 166.819C499.031 166.812 498.246 167.39 498.013 168.225L494.575 180.605L491.137 168.225C490.908 167.402 490.142 166.826 489.261 166.819C488.37 166.812 487.585 167.39 487.351 168.225L477.724 202.897C477.582 203.387 477.643 203.91 477.903 204.351C478.164 204.797 478.593 205.119 479.098 205.249C479.607 205.383 480.147 205.312 480.598 205.056C481.05 204.8 481.379 204.377 481.51 203.884L489.246 176.026L492.546 187.912L488.385 202.897C488.239 203.387 488.304 203.91 488.565 204.351C488.825 204.793 489.254 205.119 489.759 205.249C490.268 205.383 490.808 205.312 491.26 205.056C491.711 204.8 492.041 204.377 492.171 203.884L494.579 195.219L496.987 203.884H496.983C497.113 204.377 497.438 204.8 497.89 205.056C498.346 205.312 498.885 205.383 499.391 205.249C499.9 205.119 500.328 204.797 500.589 204.351C500.845 203.91 500.91 203.386 500.769 202.897L496.608 187.912L499.907 176.026L507.644 203.884C507.77 204.377 508.1 204.8 508.551 205.056C509.007 205.312 509.547 205.383 510.052 205.249C510.557 205.119 510.99 204.797 511.25 204.351C511.507 203.91 511.572 203.387 511.43 202.897L511.396 202.774C513.375 204.385 515.679 205.316 518.125 205.316C522.042 205.316 525.598 202.926 528.036 199.182C528.323 198.759 528.419 198.24 528.308 197.742C528.197 197.245 527.883 196.811 527.439 196.54C526.995 196.269 526.459 196.18 525.946 196.295C525.437 196.41 524.997 196.722 524.721 197.156C522.784 200.132 520.399 201.516 518.125 201.516C515.851 201.516 513.466 200.128 511.529 197.156C509.592 194.18 508.413 189.934 508.413 185.503C508.413 181.069 509.592 176.827 511.529 173.851C513.466 170.874 515.851 169.49 518.125 169.49C520.399 169.49 522.784 170.878 524.721 173.851V173.847C524.997 174.281 525.437 174.589 525.946 174.704C526.459 174.819 526.995 174.734 527.439 174.463C527.883 174.188 528.197 173.758 528.308 173.261C528.419 172.763 528.323 172.244 528.036 171.817C525.598 168.073 522.041 165.683 518.125 165.683L518.125 165.684Z" fill="#888888" fill-opacity="0.2"/>
<path fill-rule="evenodd" clip-rule="evenodd" d="M140.227 685.485C140.682 685.478 141.085 685.78 141.206 686.219L146.455 705.248C146.602 705.781 146.289 706.332 145.757 706.478C145.225 706.625 144.674 706.313 144.527 705.78L142.798 699.51H138.112L136.599 705.75C136.469 706.287 135.928 706.616 135.391 706.486C134.855 706.356 134.525 705.815 134.655 705.279L136.054 699.51H134.461C133.909 699.51 133.461 699.062 133.461 698.51C133.461 697.958 133.909 697.51 134.461 697.51H136.539L139.271 686.25C139.378 685.807 139.771 685.493 140.227 685.485ZM138.597 697.51H142.246L140.305 690.472L138.597 697.51Z" fill="#888888" fill-opacity="0.2"/>
<path fill-rule="evenodd" clip-rule="evenodd" d="M146.376 689.806C145.405 691.344 144.772 693.532 144.772 696C144.772 698.468 145.405 700.655 146.376 702.194C147.355 703.745 148.583 704.514 149.777 704.514C150.805 704.514 151.85 703.95 152.752 702.798C153.093 702.364 153.722 702.287 154.156 702.628C154.591 702.969 154.667 703.597 154.326 704.032C153.17 705.507 151.597 706.514 149.777 706.514C147.654 706.514 145.879 705.153 144.685 703.261C143.483 701.356 142.772 698.786 142.772 696C142.772 693.213 143.483 690.643 144.685 688.738C145.879 686.846 147.654 685.485 149.777 685.485C151.397 685.485 152.827 686.286 153.934 687.503C154.306 687.911 154.276 688.544 153.867 688.915C153.459 689.287 152.826 689.257 152.455 688.849C151.622 687.934 150.696 687.485 149.777 687.485C148.583 687.485 147.355 688.254 146.376 689.806Z" fill="#888888" fill-opacity="0.2"/>
<circle cx="725" cy="718" r="37" fill="black" fill-opacity="0.04"/>
<path d="M724.5 735C722.077 735 719.827 734.478 717.75 733.434C715.716 732.351 714.072 730.9 712.817 729.082C711.606 727.265 711 725.273 711 723.107C711 721.057 711.519 719.181 712.558 717.479C713.596 715.739 715.002 714.308 716.776 713.186C718.55 712.026 720.541 711.33 722.748 711.098V705.992H715.089V703.266H722.748V697H726.252V703.266H733.457V705.992H726.252V711.098C728.502 711.33 730.493 712.026 732.224 713.186C733.998 714.308 735.404 715.739 736.442 717.479C737.481 719.181 738 721.057 738 723.107C738 725.273 737.373 727.265 736.118 729.082C734.906 730.9 733.284 732.351 731.25 733.434C729.216 734.478 726.966 735 724.5 735ZM724.5 732.099C726.361 732.099 728.07 731.693 729.627 730.881C731.185 730.03 732.418 728.928 733.327 727.574C734.279 726.22 734.755 724.731 734.755 723.107C734.755 721.444 734.279 719.916 733.327 718.524C732.418 717.131 731.185 716.029 729.627 715.217C728.07 714.366 726.361 713.94 724.5 713.94C722.683 713.94 720.995 714.366 719.438 715.217C717.88 716.029 716.625 717.131 715.673 718.524C714.721 719.916 714.245 721.444 714.245 723.107C714.245 724.693 714.7 726.182 715.608 727.574C716.56 728.928 717.815 730.03 719.373 730.881C720.93 731.693 722.639 732.099 724.5 732.099Z" fill="white" fill-opacity="0.2"/>
<defs>
<clipPath id="clip0_416_1143">
<rect width="45" height="45" fill="white" transform="translate(501 1056)"/>
</clipPath>
</defs>
</svg>
